<svg width="64" height="64" viewBox="0 0 64 64" fill="none" xmlns="http://www.w3.org/2000/svg">
<rect width="64" height="64" fill="white"/>
<path d="M2.88 60.072C2.736 60.072 2.62933 60.0507 2.56 60.008C2.496 59.9653 2.456 59.9067 2.44 59.832C2.424 59.7573 2.416 59.6773 2.416 59.592V56.6C2.416 56.5147 2.424 56.4373 2.44 56.368C2.456 56.2987 2.49867 56.2427 2.568 56.2C2.63733 56.1573 2.74667 56.136 2.896 56.136C3.05067 56.136 3.16267 56.168 3.232 56.232C3.30667 56.296 3.344 56.3973 3.344 56.536L3.272 56.76C3.29867 56.7013 3.344 56.6373 3.408 56.568C3.472 56.4987 3.54933 56.4293 3.64 56.36C3.736 56.2907 3.84267 56.2347 3.96 56.192C4.07733 56.1493 4.2 56.128 4.328 56.128C4.504 56.128 4.664 56.1573 4.808 56.216C4.95733 56.2747 5.088 56.36 5.2 56.472C5.31733 56.584 5.41867 56.72 5.504 56.88C5.59467 56.7413 5.696 56.616 5.808 56.504C5.92 56.3867 6.05067 56.296 6.2 56.232C6.34933 56.1627 6.51733 56.128 6.704 56.128C7.01333 56.128 7.272 56.2053 7.48 56.36C7.69333 56.5147 7.85333 56.736 7.96 57.024C8.072 57.3067 8.128 57.6453 8.128 58.04V59.592C8.128 59.6827 8.11733 59.7653 8.096 59.84C8.08 59.9093 8.03733 59.9653 7.968 60.008C7.904 60.0507 7.79733 60.072 7.648 60.072C7.49867 60.072 7.38933 60.048 7.32 60C7.25067 59.9573 7.208 59.9013 7.192 59.832C7.176 59.7573 7.168 59.6747 7.168 59.584V58.032C7.168 57.8347 7.144 57.664 7.096 57.52C7.048 57.376 6.976 57.264 6.88 57.184C6.78933 57.104 6.66933 57.064 6.52 57.064C6.36 57.064 6.22133 57.104 6.104 57.184C5.992 57.2587 5.904 57.368 5.84 57.512C5.776 57.656 5.744 57.832 5.744 58.04V59.6C5.744 59.6907 5.73067 59.776 5.704 59.856C5.67733 59.9307 5.624 59.9867 5.544 60.024C5.46933 60.0667 5.36 60.0827 5.216 60.072C5.08267 60.0667 4.984 60.04 4.92 59.992C4.86133 59.944 4.824 59.8853 4.808 59.816C4.79733 59.7413 4.792 59.664 4.792 59.584V58.032C4.792 57.8347 4.768 57.664 4.72 57.52C4.672 57.3707 4.6 57.2587 4.504 57.184C4.41333 57.104 4.29067 57.064 4.136 57.064C3.97067 57.064 3.82933 57.1067 3.712 57.192C3.6 57.2773 3.51467 57.392 3.456 57.536C3.39733 57.68 3.368 57.8453 3.368 58.032V59.6C3.368 59.6853 3.35733 59.7653 3.336 59.84C3.32 59.9147 3.27733 59.9707 3.208 60.008C3.144 60.0507 3.03467 60.072 2.88 60.072ZM12.2116 60.064C12.057 60.064 11.9423 60.0347 11.8676 59.976C11.793 59.9173 11.7556 59.8373 11.7556 59.736L11.8116 59.472C11.769 59.5413 11.697 59.624 11.5956 59.72C11.4943 59.8107 11.361 59.8933 11.1956 59.968C11.0303 60.0373 10.8303 60.072 10.5956 60.072C10.345 60.072 10.1076 60.0213 9.88363 59.92C9.66496 59.8133 9.47029 59.6693 9.29963 59.488C9.13429 59.3013 9.00096 59.0907 8.89963 58.856C8.80363 58.616 8.75563 58.36 8.75563 58.088C8.75563 57.8267 8.80363 57.5813 8.89963 57.352C9.00096 57.1173 9.13696 56.9093 9.30763 56.728C9.47829 56.5467 9.67296 56.4053 9.89163 56.304C10.1156 56.1973 10.3503 56.144 10.5956 56.144C10.8143 56.144 10.9983 56.1733 11.1476 56.232C11.3023 56.2907 11.433 56.3653 11.5396 56.456C11.6463 56.5413 11.7343 56.632 11.8036 56.728L11.7556 56.496C11.7556 56.3787 11.793 56.2907 11.8676 56.232C11.9423 56.168 12.0596 56.136 12.2196 56.136C12.369 56.136 12.4756 56.16 12.5396 56.208C12.6036 56.2507 12.6436 56.312 12.6596 56.392C12.6756 56.4667 12.6836 56.552 12.6836 56.648V59.576C12.6836 59.6667 12.6756 59.7493 12.6596 59.824C12.6436 59.8987 12.601 59.9573 12.5316 60C12.4676 60.0427 12.361 60.064 12.2116 60.064ZM10.7396 59.136C10.921 59.136 11.0836 59.0907 11.2276 59C11.3716 58.9093 11.4863 58.7867 11.5716 58.632C11.6623 58.472 11.7076 58.296 11.7076 58.104C11.7076 57.896 11.6623 57.7147 11.5716 57.56C11.481 57.4053 11.361 57.2853 11.2116 57.2C11.0676 57.1093 10.905 57.064 10.7236 57.064C10.5263 57.064 10.3503 57.112 10.1956 57.208C10.041 57.2987 9.91829 57.424 9.82763 57.584C9.74229 57.7387 9.69963 57.9147 9.69963 58.112C9.69963 58.304 9.74496 58.4773 9.83563 58.632C9.92629 58.7867 10.049 58.9093 10.2036 59C10.3636 59.0907 10.5423 59.136 10.7396 59.136ZM14.3221 61.656C14.1514 61.5813 14.0527 61.496 14.0261 61.4C13.9994 61.3093 14.0234 61.1867 14.0981 61.032L16.1621 56.408C16.2367 56.2373 16.3167 56.136 16.4021 56.104C16.4874 56.0667 16.6181 56.0853 16.7941 56.16C16.9594 56.2347 17.0554 56.3173 17.0821 56.408C17.1141 56.4987 17.0954 56.6213 17.0261 56.776L14.9461 61.424C14.8767 61.5947 14.7994 61.6933 14.7141 61.72C14.6287 61.752 14.4981 61.7307 14.3221 61.656ZM15.0661 59.696L13.2181 56.856C13.1221 56.712 13.0821 56.592 13.0981 56.496C13.1194 56.4 13.2047 56.3067 13.3541 56.216C13.5194 56.1147 13.6474 56.0747 13.7381 56.096C13.8341 56.1173 13.9301 56.2027 14.0261 56.352L15.4901 58.632L15.0661 59.696ZM19.7298 60.072C19.4685 60.072 19.2338 60.0213 19.0258 59.92C18.8231 59.8133 18.6498 59.6693 18.5058 59.488C18.3671 59.3067 18.2605 59.0987 18.1858 58.864C18.1165 58.624 18.0818 58.368 18.0818 58.096C18.0871 57.824 18.1271 57.5707 18.2018 57.336C18.2765 57.096 18.3831 56.888 18.5218 56.712C18.6658 56.5307 18.8391 56.3893 19.0418 56.288C19.2445 56.1867 19.4738 56.136 19.7298 56.136C19.9751 56.136 20.2045 56.1867 20.4178 56.288C20.6365 56.3893 20.8285 56.5307 20.9938 56.712C21.1645 56.888 21.2978 57.096 21.3938 57.336C21.4898 57.5707 21.5378 57.8213 21.5378 58.088C21.5378 58.3653 21.4898 58.6267 21.3938 58.872C21.2978 59.112 21.1671 59.3227 21.0018 59.504C20.8365 59.68 20.6445 59.8187 20.4258 59.92C20.2071 60.0213 19.9751 60.072 19.7298 60.072ZM19.6018 59.136C19.7885 59.136 19.9565 59.0933 20.1058 59.008C20.2551 58.9173 20.3725 58.7947 20.4578 58.64C20.5485 58.4853 20.5938 58.3093 20.5938 58.112C20.5938 57.9093 20.5485 57.7307 20.4578 57.576C20.3725 57.416 20.2551 57.2933 20.1058 57.208C19.9565 57.1173 19.7885 57.072 19.6018 57.072C19.4205 57.072 19.2551 57.1173 19.1058 57.208C18.9565 57.2987 18.8365 57.4213 18.7458 57.576C18.6605 57.7307 18.6178 57.9093 18.6178 58.112C18.6178 58.3093 18.6605 58.4853 18.7458 58.64C18.8365 58.7947 18.9565 58.9173 19.1058 59.008C19.2551 59.0933 19.4205 59.136 19.6018 59.136ZM18.1218 60.08C17.9778 60.08 17.8711 60.056 17.8018 60.008C17.7325 59.9653 17.6898 59.9093 17.6738 59.84C17.6578 59.7653 17.6498 59.6827 17.6498 59.592V54.824C17.6498 54.7333 17.6578 54.6533 17.6738 54.584C17.6898 54.5093 17.7325 54.4507 17.8018 54.408C17.8711 54.3653 17.9778 54.344 18.1218 54.344C18.2711 54.344 18.3778 54.3653 18.4418 54.408C18.5058 54.4507 18.5458 54.5093 18.5618 54.584C18.5778 54.6587 18.5858 54.7387 18.5858 54.824V59.752C18.5645 59.8693 18.5191 59.952 18.4498 60C18.3858 60.0533 18.2765 60.08 18.1218 60.08ZM24.1638 60.128C23.8171 60.128 23.5131 60.072 23.2518 59.96C22.9958 59.848 22.7798 59.696 22.6038 59.504C22.4331 59.3067 22.3024 59.088 22.2118 58.848C22.1264 58.6027 22.0838 58.3493 22.0838 58.088C22.0838 57.704 22.1718 57.3627 22.3478 57.064C22.5238 56.7653 22.7664 56.5307 23.0758 56.36C23.3904 56.1893 23.7504 56.104 24.1558 56.104C24.4438 56.104 24.6971 56.1493 24.9158 56.24C25.1344 56.3307 25.3158 56.4507 25.4598 56.6C25.6091 56.744 25.7211 56.904 25.7958 57.08C25.8758 57.256 25.9158 57.4267 25.9158 57.592C25.9158 57.8747 25.8464 58.08 25.7078 58.208C25.5744 58.336 25.4064 58.4 25.2038 58.4H23.0918C23.0971 58.5813 23.1531 58.7387 23.2598 58.872C23.3718 59.0053 23.5104 59.1093 23.6758 59.184C23.8464 59.2533 24.0198 59.288 24.1957 59.288C24.3291 59.288 24.4464 59.28 24.5478 59.264C24.6544 59.248 24.7451 59.2293 24.8198 59.208C24.8944 59.1813 24.9584 59.1547 25.0118 59.128C25.0704 59.1013 25.1238 59.0773 25.1718 59.056C25.2198 59.0347 25.2651 59.0213 25.3078 59.016C25.3664 59.0107 25.4251 59.024 25.4838 59.056C25.5424 59.088 25.5904 59.144 25.6278 59.224C25.6598 59.2773 25.6811 59.328 25.6918 59.376C25.7078 59.4187 25.7158 59.4613 25.7158 59.504C25.7158 59.6107 25.6518 59.712 25.5238 59.808C25.3958 59.8987 25.2144 59.9733 24.9798 60.032C24.7504 60.096 24.4784 60.128 24.1638 60.128ZM23.0918 57.832H24.7318C24.8224 57.832 24.8918 57.8187 24.9398 57.792C24.9878 57.76 25.0118 57.696 25.0118 57.6C25.0118 57.4773 24.9744 57.368 24.8998 57.272C24.8251 57.1707 24.7238 57.0933 24.5958 57.04C24.4678 56.9813 24.3184 56.952 24.1478 56.952C23.9504 56.952 23.7718 56.992 23.6118 57.072C23.4518 57.1467 23.3238 57.2507 23.2278 57.384C23.1371 57.5173 23.0918 57.6667 23.0918 57.832ZM28.4381 60.08C28.1768 60.08 27.9528 60.0533 27.7661 60C27.5795 59.9467 27.4275 59.864 27.3101 59.752C27.1928 59.64 27.1048 59.496 27.0461 59.32C26.9928 59.1387 26.9661 58.9253 26.9661 58.68V55.288C26.9661 55.192 26.9741 55.1093 26.9901 55.04C27.0115 54.9707 27.0541 54.9173 27.1181 54.88C27.1875 54.8373 27.2941 54.816 27.4381 54.816C27.5875 54.816 27.6941 54.8373 27.7581 54.88C27.8275 54.9227 27.8701 54.9813 27.8861 55.056C27.9075 55.1253 27.9181 55.2027 27.9181 55.288V58.648C27.9181 58.76 27.9261 58.8507 27.9421 58.92C27.9635 58.9893 27.9928 59.0427 28.0301 59.08C28.0728 59.112 28.1261 59.136 28.1901 59.152C28.2595 59.1627 28.3421 59.168 28.4381 59.168C28.5395 59.168 28.6248 59.176 28.6941 59.192C28.7688 59.208 28.8248 59.248 28.8621 59.312C28.8995 59.3707 28.9181 59.4693 28.9181 59.608C28.9181 59.7573 28.8941 59.8667 28.8461 59.936C28.8035 60 28.7448 60.04 28.6701 60.056C28.6008 60.072 28.5235 60.08 28.4381 60.08ZM26.6381 56.216L27.4621 56.224L28.5661 56.192C28.6568 56.192 28.7368 56.2027 28.8061 56.224C28.8808 56.24 28.9395 56.2827 28.9821 56.352C29.0248 56.416 29.0461 56.5227 29.0461 56.672C29.0461 56.8107 29.0248 56.9147 28.9821 56.984C28.9395 57.0533 28.8835 57.0987 28.8141 57.12C28.7448 57.136 28.6648 57.144 28.5741 57.144L27.5021 57.128L26.6141 57.136C26.4808 57.1307 26.3875 57.0933 26.3341 57.024C26.2861 56.9493 26.2621 56.8293 26.2621 56.664C26.2621 56.5093 26.2915 56.3973 26.3501 56.328C26.4141 56.2533 26.5101 56.216 26.6381 56.216ZM31.4826 60.128C31.2266 60.128 30.9759 60.08 30.7306 59.984C30.4906 59.8827 30.2719 59.7413 30.0746 59.56C29.8826 59.3787 29.7279 59.1653 29.6106 58.92C29.4986 58.6747 29.4426 58.4053 29.4426 58.112C29.4426 57.8293 29.4959 57.5653 29.6026 57.32C29.7092 57.0747 29.8559 56.8587 30.0426 56.672C30.2292 56.4853 30.4426 56.3413 30.6826 56.24C30.9279 56.1333 31.1892 56.08 31.4666 56.08C31.8399 56.08 32.1786 56.1707 32.4826 56.352C32.7866 56.528 33.0292 56.768 33.2106 57.072C33.3919 57.376 33.4826 57.72 33.4826 58.104C33.4826 58.408 33.4266 58.6853 33.3146 58.936C33.2026 59.1813 33.0506 59.3947 32.8586 59.576C32.6666 59.752 32.4506 59.888 32.2106 59.984C31.9759 60.08 31.7332 60.128 31.4826 60.128ZM31.4666 59.184C31.6426 59.184 31.8106 59.1413 31.9706 59.056C32.1359 58.9653 32.2692 58.8373 32.3706 58.672C32.4772 58.5067 32.5306 58.312 32.5306 58.088C32.5306 57.88 32.4826 57.696 32.3866 57.536C32.2959 57.376 32.1706 57.2507 32.0106 57.16C31.8506 57.0693 31.6666 57.024 31.4586 57.024C31.2612 57.024 31.0826 57.072 30.9226 57.168C30.7626 57.2587 30.6346 57.3867 30.5386 57.552C30.4479 57.712 30.4026 57.8933 30.4026 58.096C30.4026 58.32 30.4532 58.5147 30.5546 58.68C30.6559 58.84 30.7866 58.9653 30.9466 59.056C31.1119 59.1413 31.2852 59.184 31.4666 59.184ZM34.5753 60.072C34.4313 60.072 34.3246 60.0507 34.2553 60.008C34.1913 59.9653 34.1513 59.9067 34.1353 59.832C34.1193 59.7573 34.1113 59.6773 34.1113 59.592V56.6C34.1113 56.5147 34.1193 56.4373 34.1353 56.368C34.1513 56.2987 34.194 56.2427 34.2633 56.2C34.3326 56.1573 34.442 56.136 34.5913 56.136C34.746 56.136 34.858 56.168 34.9273 56.232C35.002 56.296 35.0393 56.3973 35.0393 56.536L34.9673 56.76C34.994 56.7013 35.0393 56.6373 35.1033 56.568C35.1673 56.4987 35.2446 56.4293 35.3353 56.36C35.4313 56.2907 35.538 56.2347 35.6553 56.192C35.7726 56.1493 35.8953 56.128 36.0233 56.128C36.1993 56.128 36.3593 56.1573 36.5033 56.216C36.6526 56.2747 36.7833 56.36 36.8953 56.472C37.0126 56.584 37.114 56.72 37.1993 56.88C37.29 56.7413 37.3913 56.616 37.5033 56.504C37.6153 56.3867 37.746 56.296 37.8953 56.232C38.0446 56.1627 38.2126 56.128 38.3993 56.128C38.7086 56.128 38.9673 56.2053 39.1753 56.36C39.3886 56.5147 39.5486 56.736 39.6553 57.024C39.7673 57.3067 39.8233 57.6453 39.8233 58.04V59.592C39.8233 59.6827 39.8126 59.7653 39.7913 59.84C39.7753 59.9093 39.7326 59.9653 39.6633 60.008C39.5993 60.0507 39.4926 60.072 39.3433 60.072C39.194 60.072 39.0846 60.048 39.0153 60C38.946 59.9573 38.9033 59.9013 38.8873 59.832C38.8713 59.7573 38.8633 59.6747 38.8633 59.584V58.032C38.8633 57.8347 38.8393 57.664 38.7913 57.52C38.7433 57.376 38.6713 57.264 38.5753 57.184C38.4846 57.104 38.3646 57.064 38.2153 57.064C38.0553 57.064 37.9166 57.104 37.7993 57.184C37.6873 57.2587 37.5993 57.368 37.5353 57.512C37.4713 57.656 37.4393 57.832 37.4393 58.04V59.6C37.4393 59.6907 37.426 59.776 37.3993 59.856C37.3726 59.9307 37.3193 59.9867 37.2393 60.024C37.1646 60.0667 37.0553 60.0827 36.9113 60.072C36.778 60.0667 36.6793 60.04 36.6153 59.992C36.5566 59.944 36.5193 59.8853 36.5033 59.816C36.4926 59.7413 36.4873 59.664 36.4873 59.584V58.032C36.4873 57.8347 36.4633 57.664 36.4153 57.52C36.3673 57.3707 36.2953 57.2587 36.1993 57.184C36.1086 57.104 35.986 57.064 35.8313 57.064C35.666 57.064 35.5246 57.1067 35.4073 57.192C35.2953 57.2773 35.21 57.392 35.1513 57.536C35.0926 57.68 35.0633 57.8453 35.0633 58.032V59.6C35.0633 59.6853 35.0526 59.7653 35.0313 59.84C35.0153 59.9147 34.9726 59.9707 34.9033 60.008C34.8393 60.0507 34.73 60.072 34.5753 60.072ZM42.4669 60.128C42.2109 60.128 41.9603 60.08 41.7149 59.984C41.4749 59.8827 41.2563 59.7413 41.0589 59.56C40.8669 59.3787 40.7123 59.1653 40.5949 58.92C40.4829 58.6747 40.4269 58.4053 40.4269 58.112C40.4269 57.8293 40.4803 57.5653 40.5869 57.32C40.6936 57.0747 40.8403 56.8587 41.0269 56.672C41.2136 56.4853 41.4269 56.3413 41.6669 56.24C41.9123 56.1333 42.1736 56.08 42.4509 56.08C42.8243 56.08 43.1629 56.1707 43.4669 56.352C43.7709 56.528 44.0136 56.768 44.1949 57.072C44.3763 57.376 44.4669 57.72 44.4669 58.104C44.4669 58.408 44.4109 58.6853 44.2989 58.936C44.1869 59.1813 44.0349 59.3947 43.8429 59.576C43.6509 59.752 43.4349 59.888 43.1949 59.984C42.9603 60.08 42.7176 60.128 42.4669 60.128ZM42.4509 59.184C42.6269 59.184 42.7949 59.1413 42.9549 59.056C43.1203 58.9653 43.2536 58.8373 43.3549 58.672C43.4616 58.5067 43.5149 58.312 43.5149 58.088C43.5149 57.88 43.4669 57.696 43.3709 57.536C43.2803 57.376 43.1549 57.2507 42.9949 57.16C42.8349 57.0693 42.6509 57.024 42.4429 57.024C42.2456 57.024 42.0669 57.072 41.9069 57.168C41.7469 57.2587 41.6189 57.3867 41.5229 57.552C41.4323 57.712 41.3869 57.8933 41.3869 58.096C41.3869 58.32 41.4376 58.5147 41.5389 58.68C41.6403 58.84 41.7709 58.9653 41.9309 59.056C42.0963 59.1413 42.2696 59.184 42.4509 59.184ZM45.5677 60.08C45.4237 60.08 45.317 60.056 45.2477 60.008C45.1837 59.9653 45.1437 59.9067 45.1277 59.832C45.1117 59.7573 45.1037 59.6747 45.1037 59.584V56.616C45.1037 56.52 45.1117 56.4373 45.1277 56.368C45.1437 56.2933 45.1837 56.2373 45.2477 56.2C45.317 56.1573 45.4264 56.136 45.5757 56.136C45.7197 56.136 45.8237 56.1547 45.8877 56.192C45.957 56.2293 45.9997 56.2773 46.0157 56.336C46.037 56.3893 46.0477 56.4427 46.0477 56.496L45.9837 56.64C46.0104 56.5973 46.0477 56.5467 46.0957 56.488C46.1437 56.424 46.2077 56.3627 46.2877 56.304C46.3677 56.24 46.4637 56.1893 46.5757 56.152C46.6877 56.1093 46.821 56.088 46.9757 56.088C47.0397 56.088 47.1064 56.096 47.1757 56.112C47.2504 56.1227 47.3224 56.1413 47.3917 56.168C47.4664 56.1893 47.533 56.2187 47.5917 56.256C47.6504 56.2933 47.6957 56.3387 47.7277 56.392C47.7597 56.44 47.7757 56.496 47.7757 56.56C47.7757 56.7307 47.733 56.8747 47.6477 56.992C47.5624 57.1093 47.461 57.168 47.3437 57.168C47.2637 57.168 47.205 57.16 47.1677 57.144C47.1304 57.128 47.0984 57.1093 47.0717 57.088C47.0504 57.0667 47.0157 57.048 46.9677 57.032C46.925 57.016 46.8557 57.008 46.7597 57.008C46.6797 57.008 46.597 57.0213 46.5117 57.048C46.4317 57.0747 46.357 57.1147 46.2877 57.168C46.2184 57.2213 46.1624 57.2907 46.1197 57.376C46.077 57.456 46.0557 57.5493 46.0557 57.656V59.6C46.0557 59.6907 46.0477 59.7733 46.0317 59.848C46.0157 59.9173 45.973 59.9733 45.9037 60.016C45.8344 60.0587 45.7224 60.08 45.5677 60.08ZM48.888 60.08C48.744 60.08 48.6373 60.056 48.568 60.008C48.504 59.9653 48.464 59.9067 48.448 59.832C48.432 59.7573 48.424 59.6747 48.424 59.584V56.616C48.424 56.52 48.432 56.4373 48.448 56.368C48.464 56.2933 48.504 56.2373 48.568 56.2C48.6373 56.1573 48.7467 56.136 48.896 56.136C49.04 56.136 49.144 56.1547 49.208 56.192C49.2773 56.2293 49.32 56.2773 49.336 56.336C49.3573 56.3893 49.368 56.4427 49.368 56.496L49.304 56.64C49.3307 56.5973 49.368 56.5467 49.416 56.488C49.464 56.424 49.528 56.3627 49.608 56.304C49.688 56.24 49.784 56.1893 49.896 56.152C50.008 56.1093 50.1413 56.088 50.296 56.088C50.36 56.088 50.4267 56.096 50.496 56.112C50.5707 56.1227 50.6427 56.1413 50.712 56.168C50.7867 56.1893 50.8533 56.2187 50.912 56.256C50.9707 56.2933 51.016 56.3387 51.048 56.392C51.08 56.44 51.096 56.496 51.096 56.56C51.096 56.7307 51.0533 56.8747 50.968 56.992C50.8827 57.1093 50.7813 57.168 50.664 57.168C50.584 57.168 50.5253 57.16 50.488 57.144C50.4507 57.128 50.4187 57.1093 50.392 57.088C50.3707 57.0667 50.336 57.048 50.288 57.032C50.2453 57.016 50.176 57.008 50.08 57.008C50 57.008 49.9173 57.0213 49.832 57.048C49.752 57.0747 49.6773 57.1147 49.608 57.168C49.5387 57.2213 49.4827 57.2907 49.44 57.376C49.3973 57.456 49.376 57.5493 49.376 57.656V59.6C49.376 59.6907 49.368 59.7733 49.352 59.848C49.336 59.9173 49.2933 59.9733 49.224 60.016C49.1547 60.0587 49.0427 60.08 48.888 60.08ZM53.4201 60.128C53.1641 60.128 52.9134 60.08 52.6681 59.984C52.4281 59.8827 52.2094 59.7413 52.0121 59.56C51.8201 59.3787 51.6654 59.1653 51.5481 58.92C51.4361 58.6747 51.3801 58.4053 51.3801 58.112C51.3801 57.8293 51.4334 57.5653 51.5401 57.32C51.6467 57.0747 51.7934 56.8587 51.9801 56.672C52.1667 56.4853 52.3801 56.3413 52.6201 56.24C52.8654 56.1333 53.1267 56.08 53.4041 56.08C53.7774 56.08 54.1161 56.1707 54.4201 56.352C54.7241 56.528 54.9667 56.768 55.1481 57.072C55.3294 57.376 55.4201 57.72 55.4201 58.104C55.4201 58.408 55.3641 58.6853 55.2521 58.936C55.1401 59.1813 54.9881 59.3947 54.7961 59.576C54.6041 59.752 54.3881 59.888 54.1481 59.984C53.9134 60.08 53.6707 60.128 53.4201 60.128ZM53.4041 59.184C53.5801 59.184 53.7481 59.1413 53.9081 59.056C54.0734 58.9653 54.2067 58.8373 54.3081 58.672C54.4147 58.5067 54.4681 58.312 54.4681 58.088C54.4681 57.88 54.4201 57.696 54.3241 57.536C54.2334 57.376 54.1081 57.2507 53.9481 57.16C53.7881 57.0693 53.6041 57.024 53.3961 57.024C53.1987 57.024 53.0201 57.072 52.8601 57.168C52.7001 57.2587 52.5721 57.3867 52.4761 57.552C52.3854 57.712 52.3401 57.8933 52.3401 58.096C52.3401 58.32 52.3907 58.5147 52.4921 58.68C52.5934 58.84 52.7241 58.9653 52.8841 59.056C53.0494 59.1413 53.2227 59.184 53.4041 59.184ZM57.3326 60.072C57.2259 60.072 57.1406 60.0507 57.0766 60.008C57.0179 59.9707 56.9726 59.9227 56.9406 59.864C56.9139 59.8053 56.8899 59.752 56.8686 59.704L55.6926 56.728C55.6606 56.6267 55.6446 56.5413 55.6446 56.472C55.6499 56.4027 55.6766 56.344 55.7246 56.296C55.7779 56.2427 55.8552 56.1973 55.9566 56.16C56.1272 56.0907 56.2606 56.072 56.3566 56.104C56.4579 56.136 56.5326 56.2267 56.5806 56.376L57.3406 58.392L58.0286 56.464C58.0446 56.416 58.0686 56.3653 58.1006 56.312C58.1326 56.2587 58.1779 56.2133 58.2366 56.176C58.3006 56.1333 58.3859 56.112 58.4926 56.112C58.6046 56.112 58.6926 56.1333 58.7566 56.176C58.8206 56.2133 58.8686 56.2587 58.9006 56.312C58.9379 56.3653 58.9619 56.416 58.9726 56.464L59.6606 58.408L60.3886 56.448C60.4526 56.2827 60.5326 56.1733 60.6286 56.12C60.7246 56.0667 60.8552 56.072 61.0206 56.136C61.1699 56.2 61.2712 56.28 61.3246 56.376C61.3779 56.4667 61.3726 56.5867 61.3086 56.736L60.1246 59.704C60.1032 59.7573 60.0766 59.8133 60.0446 59.872C60.0179 59.9253 59.9726 59.9707 59.9086 60.008C59.8499 60.0507 59.7699 60.072 59.6686 60.072C59.5619 60.072 59.4766 60.0533 59.4126 60.016C59.3539 59.984 59.3086 59.9387 59.2766 59.88C59.2446 59.8213 59.2179 59.76 59.1966 59.696L58.5006 57.72L57.8046 59.696C57.7726 59.7707 57.7432 59.8373 57.7166 59.896C57.6899 59.9547 57.6472 59.9973 57.5886 60.024C57.5299 60.056 57.4446 60.072 57.3326 60.072Z" fill="#3A055E"/>
<mask id="path-2-inside-1_19_4" fill="white">
<rect x="11" y="7" width="30" height="30" rx="2"/>
</mask>
<rect x="11" y="7" width="30" height="30" rx="2" stroke="#3A055E" stroke-width="6" mask="url(#path-2-inside-1_19_4)"/>
<mask id="path-3-inside-2_19_4" fill="white">
<path d="M24 22C24 20.8954 24.8954 20 26 20H52C53.1046 20 54 20.8954 54 22V48C54 49.1046 53.1046 50 52 50H26C24.8954 50 24 49.1046 24 48V22Z"/>
</mask>
<path d="M24 22C24 20.8954 24.8954 20 26 20H52C53.1046 20 54 20.8954 54 22V48C54 49.1046 53.1046 50 52 50H26C24.8954 50 24 49.1046 24 48V22Z" stroke="#C878FF" stroke-width="6" mask="url(#path-3-inside-2_19_4)"/>
<rect x="38" y="20" width="3" height="3" fill="#3A055E"/>
<path d="M27 23H38L31.5 29.5L27 34V23Z" fill="#C878FF"/>
<path d="M38 34H27L33.5 27.5L38 23V34Z" fill="#3A055E"/>
</svg>
