<svg width="256" height="256" viewBox="0 0 256 256" fill="none" xmlns="http://www.w3.org/2000/svg">
<rect width="256" height="256" fill="white"/>
<path d="M69.76 233.144C69.472 233.144 69.2587 233.101 69.12 233.016C68.992 232.931 68.912 232.813 68.88 232.664C68.848 232.515 68.832 232.355 68.832 232.184V226.2C68.832 226.029 68.848 225.875 68.88 225.736C68.912 225.597 68.9973 225.485 69.136 225.4C69.2747 225.315 69.4933 225.272 69.792 225.272C70.1013 225.272 70.3253 225.336 70.464 225.464C70.6133 225.592 70.688 225.795 70.688 226.072L70.544 226.52C70.5973 226.403 70.688 226.275 70.816 226.136C70.944 225.997 71.0987 225.859 71.28 225.72C71.472 225.581 71.6853 225.469 71.92 225.384C72.1547 225.299 72.4 225.256 72.656 225.256C73.008 225.256 73.328 225.315 73.616 225.432C73.9147 225.549 74.176 225.72 74.4 225.944C74.6347 226.168 74.8373 226.44 75.008 226.76C75.1893 226.483 75.392 226.232 75.616 226.008C75.84 225.773 76.1013 225.592 76.4 225.464C76.6987 225.325 77.0347 225.256 77.408 225.256C78.0267 225.256 78.544 225.411 78.96 225.72C79.3867 226.029 79.7067 226.472 79.92 227.048C80.144 227.613 80.256 228.291 80.256 229.08V232.184C80.256 232.365 80.2347 232.531 80.192 232.68C80.16 232.819 80.0747 232.931 79.936 233.016C79.808 233.101 79.5947 233.144 79.296 233.144C78.9973 233.144 78.7787 233.096 78.64 233C78.5013 232.915 78.416 232.803 78.384 232.664C78.352 232.515 78.336 232.349 78.336 232.168V229.064C78.336 228.669 78.288 228.328 78.192 228.04C78.096 227.752 77.952 227.528 77.76 227.368C77.5787 227.208 77.3387 227.128 77.04 227.128C76.72 227.128 76.4427 227.208 76.208 227.368C75.984 227.517 75.808 227.736 75.68 228.024C75.552 228.312 75.488 228.664 75.488 229.08V232.2C75.488 232.381 75.4613 232.552 75.408 232.712C75.3547 232.861 75.248 232.973 75.088 233.048C74.9387 233.133 74.72 233.165 74.432 233.144C74.1653 233.133 73.968 233.08 73.84 232.984C73.7227 232.888 73.648 232.771 73.616 232.632C73.5947 232.483 73.584 232.328 73.584 232.168V229.064C73.584 228.669 73.536 228.328 73.44 228.04C73.344 227.741 73.2 227.517 73.008 227.368C72.8267 227.208 72.5813 227.128 72.272 227.128C71.9413 227.128 71.6587 227.213 71.424 227.384C71.2 227.555 71.0293 227.784 70.912 228.072C70.7947 228.36 70.736 228.691 70.736 229.064V232.2C70.736 232.371 70.7147 232.531 70.672 232.68C70.64 232.829 70.5547 232.941 70.416 233.016C70.288 233.101 70.0693 233.144 69.76 233.144ZM88.4233 233.128C88.1139 233.128 87.8846 233.069 87.7353 232.952C87.5859 232.835 87.5113 232.675 87.5113 232.472L87.6233 231.944C87.5379 232.083 87.3939 232.248 87.1913 232.44C86.9886 232.621 86.7219 232.787 86.3913 232.936C86.0606 233.075 85.6606 233.144 85.1913 233.144C84.6899 233.144 84.2153 233.043 83.7673 232.84C83.3299 232.627 82.9406 232.339 82.5993 231.976C82.2686 231.603 82.0019 231.181 81.7993 230.712C81.6073 230.232 81.5113 229.72 81.5113 229.176C81.5113 228.653 81.6073 228.163 81.7993 227.704C82.0019 227.235 82.2739 226.819 82.6153 226.456C82.9566 226.093 83.3459 225.811 83.7833 225.608C84.2313 225.395 84.7006 225.288 85.1913 225.288C85.6286 225.288 85.9966 225.347 86.2953 225.464C86.6046 225.581 86.8659 225.731 87.0793 225.912C87.2926 226.083 87.4686 226.264 87.6073 226.456L87.5113 225.992C87.5113 225.757 87.5859 225.581 87.7353 225.464C87.8846 225.336 88.1193 225.272 88.4393 225.272C88.7379 225.272 88.9513 225.32 89.0793 225.416C89.2073 225.501 89.2873 225.624 89.3193 225.784C89.3513 225.933 89.3673 226.104 89.3673 226.296V232.152C89.3673 232.333 89.3513 232.499 89.3193 232.648C89.2873 232.797 89.2019 232.915 89.0633 233C88.9353 233.085 88.7219 233.128 88.4233 233.128ZM85.4793 231.272C85.8419 231.272 86.1673 231.181 86.4553 231C86.7433 230.819 86.9726 230.573 87.1433 230.264C87.3246 229.944 87.4153 229.592 87.4153 229.208C87.4153 228.792 87.3246 228.429 87.1433 228.12C86.9619 227.811 86.7219 227.571 86.4233 227.4C86.1353 227.219 85.8099 227.128 85.4473 227.128C85.0526 227.128 84.7006 227.224 84.3913 227.416C84.0819 227.597 83.8366 227.848 83.6553 228.168C83.4846 228.477 83.3993 228.829 83.3993 229.224C83.3993 229.608 83.4899 229.955 83.6713 230.264C83.8526 230.573 84.0979 230.819 84.4073 231C84.7273 231.181 85.0846 231.272 85.4793 231.272ZM92.6441 236.312C92.3028 236.163 92.1055 235.992 92.0521 235.8C91.9988 235.619 92.0468 235.373 92.1961 235.064L96.3241 225.816C96.4735 225.475 96.6335 225.272 96.8041 225.208C96.9748 225.133 97.2361 225.171 97.5881 225.32C97.9188 225.469 98.1108 225.635 98.1641 225.816C98.2281 225.997 98.1908 226.243 98.0521 226.552L93.8921 235.848C93.7535 236.189 93.5988 236.387 93.4281 236.44C93.2575 236.504 92.9961 236.461 92.6441 236.312ZM94.1321 232.392L90.4361 226.712C90.2441 226.424 90.1641 226.184 90.1961 225.992C90.2388 225.8 90.4095 225.613 90.7081 225.432C91.0388 225.229 91.2948 225.149 91.4761 225.192C91.6681 225.235 91.8601 225.405 92.0521 225.704L94.9801 230.264L94.1321 232.392ZM103.46 233.144C102.937 233.144 102.468 233.043 102.052 232.84C101.646 232.627 101.3 232.339 101.012 231.976C100.734 231.613 100.521 231.197 100.372 230.728C100.233 230.248 100.164 229.736 100.164 229.192C100.174 228.648 100.254 228.141 100.404 227.672C100.553 227.192 100.766 226.776 101.044 226.424C101.332 226.061 101.678 225.779 102.084 225.576C102.489 225.373 102.948 225.272 103.46 225.272C103.95 225.272 104.409 225.373 104.836 225.576C105.273 225.779 105.657 226.061 105.988 226.424C106.329 226.776 106.596 227.192 106.788 227.672C106.98 228.141 107.076 228.643 107.076 229.176C107.076 229.731 106.98 230.253 106.788 230.744C106.596 231.224 106.334 231.645 106.004 232.008C105.673 232.36 105.289 232.637 104.852 232.84C104.414 233.043 103.95 233.144 103.46 233.144ZM103.204 231.272C103.577 231.272 103.913 231.187 104.212 231.016C104.51 230.835 104.745 230.589 104.916 230.28C105.097 229.971 105.188 229.619 105.188 229.224C105.188 228.819 105.097 228.461 104.916 228.152C104.745 227.832 104.51 227.587 104.212 227.416C103.913 227.235 103.577 227.144 103.204 227.144C102.841 227.144 102.51 227.235 102.212 227.416C101.913 227.597 101.673 227.843 101.492 228.152C101.321 228.461 101.236 228.819 101.236 229.224C101.236 229.619 101.321 229.971 101.492 230.28C101.673 230.589 101.913 230.835 102.212 231.016C102.51 231.187 102.841 231.272 103.204 231.272ZM100.244 233.16C99.9556 233.16 99.7423 233.112 99.6036 233.016C99.465 232.931 99.3796 232.819 99.3476 232.68C99.3156 232.531 99.2996 232.365 99.2996 232.184V222.648C99.2996 222.467 99.3156 222.307 99.3476 222.168C99.3796 222.019 99.465 221.901 99.6036 221.816C99.7423 221.731 99.9556 221.688 100.244 221.688C100.542 221.688 100.756 221.731 100.884 221.816C101.012 221.901 101.092 222.019 101.124 222.168C101.156 222.317 101.172 222.477 101.172 222.648V232.504C101.129 232.739 101.038 232.904 100.9 233C100.772 233.107 100.553 233.16 100.244 233.16ZM112.328 233.256C111.634 233.256 111.026 233.144 110.504 232.92C109.992 232.696 109.56 232.392 109.208 232.008C108.866 231.613 108.605 231.176 108.424 230.696C108.253 230.205 108.168 229.699 108.168 229.176C108.168 228.408 108.344 227.725 108.696 227.128C109.048 226.531 109.533 226.061 110.152 225.72C110.781 225.379 111.501 225.208 112.312 225.208C112.888 225.208 113.394 225.299 113.832 225.48C114.269 225.661 114.632 225.901 114.92 226.2C115.218 226.488 115.442 226.808 115.592 227.16C115.752 227.512 115.832 227.853 115.832 228.184C115.832 228.749 115.693 229.16 115.416 229.416C115.149 229.672 114.813 229.8 114.408 229.8H110.184C110.194 230.163 110.306 230.477 110.52 230.744C110.744 231.011 111.021 231.219 111.352 231.368C111.693 231.507 112.04 231.576 112.391 231.576C112.658 231.576 112.893 231.56 113.096 231.528C113.309 231.496 113.49 231.459 113.64 231.416C113.789 231.363 113.917 231.309 114.024 231.256C114.141 231.203 114.248 231.155 114.344 231.112C114.44 231.069 114.53 231.043 114.616 231.032C114.733 231.021 114.85 231.048 114.968 231.112C115.085 231.176 115.181 231.288 115.256 231.448C115.32 231.555 115.362 231.656 115.384 231.752C115.416 231.837 115.432 231.923 115.432 232.008C115.432 232.221 115.304 232.424 115.048 232.616C114.792 232.797 114.429 232.947 113.96 233.064C113.501 233.192 112.957 233.256 112.328 233.256ZM110.184 228.664H113.464C113.645 228.664 113.784 228.637 113.88 228.584C113.976 228.52 114.024 228.392 114.024 228.2C114.024 227.955 113.949 227.736 113.8 227.544C113.65 227.341 113.448 227.187 113.192 227.08C112.936 226.963 112.637 226.904 112.296 226.904C111.901 226.904 111.544 226.984 111.224 227.144C110.904 227.293 110.648 227.501 110.456 227.768C110.274 228.035 110.184 228.333 110.184 228.664ZM120.876 233.16C120.354 233.16 119.906 233.107 119.532 233C119.159 232.893 118.855 232.728 118.62 232.504C118.386 232.28 118.21 231.992 118.092 231.64C117.986 231.277 117.932 230.851 117.932 230.36V223.576C117.932 223.384 117.948 223.219 117.98 223.08C118.023 222.941 118.108 222.835 118.236 222.76C118.375 222.675 118.588 222.632 118.876 222.632C119.175 222.632 119.388 222.675 119.516 222.76C119.655 222.845 119.74 222.963 119.772 223.112C119.815 223.251 119.836 223.405 119.836 223.576V230.296C119.836 230.52 119.852 230.701 119.884 230.84C119.927 230.979 119.986 231.085 120.06 231.16C120.146 231.224 120.252 231.272 120.38 231.304C120.519 231.325 120.684 231.336 120.876 231.336C121.079 231.336 121.25 231.352 121.388 231.384C121.538 231.416 121.65 231.496 121.724 231.624C121.799 231.741 121.836 231.939 121.836 232.216C121.836 232.515 121.788 232.733 121.692 232.872C121.607 233 121.49 233.08 121.34 233.112C121.202 233.144 121.047 233.16 120.876 233.16ZM117.276 225.432L118.924 225.448L121.132 225.384C121.314 225.384 121.474 225.405 121.612 225.448C121.762 225.48 121.879 225.565 121.964 225.704C122.05 225.832 122.092 226.045 122.092 226.344C122.092 226.621 122.05 226.829 121.964 226.968C121.879 227.107 121.767 227.197 121.628 227.24C121.49 227.272 121.33 227.288 121.148 227.288L119.004 227.256L117.228 227.272C116.962 227.261 116.775 227.187 116.668 227.048C116.572 226.899 116.524 226.659 116.524 226.328C116.524 226.019 116.583 225.795 116.7 225.656C116.828 225.507 117.02 225.432 117.276 225.432ZM126.965 233.256C126.453 233.256 125.952 233.16 125.461 232.968C124.981 232.765 124.544 232.483 124.149 232.12C123.765 231.757 123.456 231.331 123.221 230.84C122.997 230.349 122.885 229.811 122.885 229.224C122.885 228.659 122.992 228.131 123.205 227.64C123.418 227.149 123.712 226.717 124.085 226.344C124.458 225.971 124.885 225.683 125.365 225.48C125.856 225.267 126.378 225.16 126.933 225.16C127.68 225.16 128.357 225.341 128.965 225.704C129.573 226.056 130.058 226.536 130.421 227.144C130.784 227.752 130.965 228.44 130.965 229.208C130.965 229.816 130.853 230.371 130.629 230.872C130.405 231.363 130.101 231.789 129.717 232.152C129.333 232.504 128.901 232.776 128.421 232.968C127.952 233.16 127.466 233.256 126.965 233.256ZM126.933 231.368C127.285 231.368 127.621 231.283 127.941 231.112C128.272 230.931 128.538 230.675 128.741 230.344C128.954 230.013 129.061 229.624 129.061 229.176C129.061 228.76 128.965 228.392 128.773 228.072C128.592 227.752 128.341 227.501 128.021 227.32C127.701 227.139 127.333 227.048 126.917 227.048C126.522 227.048 126.165 227.144 125.845 227.336C125.525 227.517 125.269 227.773 125.077 228.104C124.896 228.424 124.805 228.787 124.805 229.192C124.805 229.64 124.906 230.029 125.109 230.36C125.312 230.68 125.573 230.931 125.893 231.112C126.224 231.283 126.57 231.368 126.933 231.368ZM133.151 233.144C132.863 233.144 132.649 233.101 132.511 233.016C132.383 232.931 132.303 232.813 132.271 232.664C132.239 232.515 132.223 232.355 132.223 232.184V226.2C132.223 226.029 132.239 225.875 132.271 225.736C132.303 225.597 132.388 225.485 132.527 225.4C132.665 225.315 132.884 225.272 133.183 225.272C133.492 225.272 133.716 225.336 133.855 225.464C134.004 225.592 134.079 225.795 134.079 226.072L133.935 226.52C133.988 226.403 134.079 226.275 134.207 226.136C134.335 225.997 134.489 225.859 134.671 225.72C134.863 225.581 135.076 225.469 135.311 225.384C135.545 225.299 135.791 225.256 136.047 225.256C136.399 225.256 136.719 225.315 137.007 225.432C137.305 225.549 137.567 225.72 137.791 225.944C138.025 226.168 138.228 226.44 138.399 226.76C138.58 226.483 138.783 226.232 139.007 226.008C139.231 225.773 139.492 225.592 139.791 225.464C140.089 225.325 140.425 225.256 140.799 225.256C141.417 225.256 141.935 225.411 142.351 225.72C142.777 226.029 143.097 226.472 143.311 227.048C143.535 227.613 143.647 228.291 143.647 229.08V232.184C143.647 232.365 143.625 232.531 143.583 232.68C143.551 232.819 143.465 232.931 143.327 233.016C143.199 233.101 142.985 233.144 142.687 233.144C142.388 233.144 142.169 233.096 142.031 233C141.892 232.915 141.807 232.803 141.775 232.664C141.743 232.515 141.727 232.349 141.727 232.168V229.064C141.727 228.669 141.679 228.328 141.583 228.04C141.487 227.752 141.343 227.528 141.151 227.368C140.969 227.208 140.729 227.128 140.431 227.128C140.111 227.128 139.833 227.208 139.599 227.368C139.375 227.517 139.199 227.736 139.071 228.024C138.943 228.312 138.879 228.664 138.879 229.08V232.2C138.879 232.381 138.852 232.552 138.799 232.712C138.745 232.861 138.639 232.973 138.479 233.048C138.329 233.133 138.111 233.165 137.823 233.144C137.556 233.133 137.359 233.08 137.231 232.984C137.113 232.888 137.039 232.771 137.007 232.632C136.985 232.483 136.975 232.328 136.975 232.168V229.064C136.975 228.669 136.927 228.328 136.831 228.04C136.735 227.741 136.591 227.517 136.399 227.368C136.217 227.208 135.972 227.128 135.663 227.128C135.332 227.128 135.049 227.213 134.815 227.384C134.591 227.555 134.42 227.784 134.303 228.072C134.185 228.36 134.127 228.691 134.127 229.064V232.2C134.127 232.371 134.105 232.531 134.063 232.68C134.031 232.829 133.945 232.941 133.807 233.016C133.679 233.101 133.46 233.144 133.151 233.144ZM148.934 233.256C148.422 233.256 147.921 233.16 147.43 232.968C146.95 232.765 146.513 232.483 146.118 232.12C145.734 231.757 145.425 231.331 145.19 230.84C144.966 230.349 144.854 229.811 144.854 229.224C144.854 228.659 144.961 228.131 145.174 227.64C145.387 227.149 145.681 226.717 146.054 226.344C146.427 225.971 146.854 225.683 147.334 225.48C147.825 225.267 148.347 225.16 148.902 225.16C149.649 225.16 150.326 225.341 150.934 225.704C151.542 226.056 152.027 226.536 152.39 227.144C152.753 227.752 152.934 228.44 152.934 229.208C152.934 229.816 152.822 230.371 152.598 230.872C152.374 231.363 152.07 231.789 151.686 232.152C151.302 232.504 150.87 232.776 150.39 232.968C149.921 233.16 149.435 233.256 148.934 233.256ZM148.902 231.368C149.254 231.368 149.59 231.283 149.91 231.112C150.241 230.931 150.507 230.675 150.71 230.344C150.923 230.013 151.03 229.624 151.03 229.176C151.03 228.76 150.934 228.392 150.742 228.072C150.561 227.752 150.31 227.501 149.99 227.32C149.67 227.139 149.302 227.048 148.886 227.048C148.491 227.048 148.134 227.144 147.814 227.336C147.494 227.517 147.238 227.773 147.046 228.104C146.865 228.424 146.774 228.787 146.774 229.192C146.774 229.64 146.875 230.029 147.078 230.36C147.281 230.68 147.542 230.931 147.862 231.112C148.193 231.283 148.539 231.368 148.902 231.368ZM155.135 233.16C154.847 233.16 154.634 233.112 154.495 233.016C154.367 232.931 154.287 232.813 154.255 232.664C154.223 232.515 154.207 232.349 154.207 232.168V226.232C154.207 226.04 154.223 225.875 154.255 225.736C154.287 225.587 154.367 225.475 154.495 225.4C154.634 225.315 154.853 225.272 155.151 225.272C155.439 225.272 155.647 225.309 155.775 225.384C155.914 225.459 155.999 225.555 156.031 225.672C156.074 225.779 156.095 225.885 156.095 225.992L155.967 226.28C156.021 226.195 156.095 226.093 156.191 225.976C156.287 225.848 156.415 225.725 156.575 225.608C156.735 225.48 156.927 225.379 157.151 225.304C157.375 225.219 157.642 225.176 157.951 225.176C158.079 225.176 158.213 225.192 158.351 225.224C158.501 225.245 158.645 225.283 158.783 225.336C158.933 225.379 159.066 225.437 159.183 225.512C159.301 225.587 159.391 225.677 159.455 225.784C159.519 225.88 159.551 225.992 159.551 226.12C159.551 226.461 159.466 226.749 159.295 226.984C159.125 227.219 158.922 227.336 158.687 227.336C158.527 227.336 158.41 227.32 158.335 227.288C158.261 227.256 158.197 227.219 158.143 227.176C158.101 227.133 158.031 227.096 157.935 227.064C157.85 227.032 157.711 227.016 157.519 227.016C157.359 227.016 157.194 227.043 157.023 227.096C156.863 227.149 156.714 227.229 156.575 227.336C156.437 227.443 156.325 227.581 156.239 227.752C156.154 227.912 156.111 228.099 156.111 228.312V232.2C156.111 232.381 156.095 232.547 156.063 232.696C156.031 232.835 155.946 232.947 155.807 233.032C155.669 233.117 155.445 233.16 155.135 233.16ZM161.776 233.16C161.488 233.16 161.275 233.112 161.136 233.016C161.008 232.931 160.928 232.813 160.896 232.664C160.864 232.515 160.848 232.349 160.848 232.168V226.232C160.848 226.04 160.864 225.875 160.896 225.736C160.928 225.587 161.008 225.475 161.136 225.4C161.275 225.315 161.493 225.272 161.792 225.272C162.08 225.272 162.288 225.309 162.416 225.384C162.555 225.459 162.64 225.555 162.672 225.672C162.715 225.779 162.736 225.885 162.736 225.992L162.608 226.28C162.661 226.195 162.736 226.093 162.832 225.976C162.928 225.848 163.056 225.725 163.216 225.608C163.376 225.48 163.568 225.379 163.792 225.304C164.016 225.219 164.283 225.176 164.592 225.176C164.72 225.176 164.853 225.192 164.992 225.224C165.141 225.245 165.285 225.283 165.424 225.336C165.573 225.379 165.707 225.437 165.824 225.512C165.941 225.587 166.032 225.677 166.096 225.784C166.16 225.88 166.192 225.992 166.192 226.12C166.192 226.461 166.107 226.749 165.936 226.984C165.765 227.219 165.563 227.336 165.328 227.336C165.168 227.336 165.051 227.32 164.976 227.288C164.901 227.256 164.837 227.219 164.784 227.176C164.741 227.133 164.672 227.096 164.576 227.064C164.491 227.032 164.352 227.016 164.16 227.016C164 227.016 163.835 227.043 163.664 227.096C163.504 227.149 163.355 227.229 163.216 227.336C163.077 227.443 162.965 227.581 162.88 227.752C162.795 227.912 162.752 228.099 162.752 228.312V232.2C162.752 232.381 162.736 232.547 162.704 232.696C162.672 232.835 162.587 232.947 162.448 233.032C162.309 233.117 162.085 233.16 161.776 233.16ZM170.84 233.256C170.328 233.256 169.827 233.16 169.336 232.968C168.856 232.765 168.419 232.483 168.024 232.12C167.64 231.757 167.331 231.331 167.096 230.84C166.872 230.349 166.76 229.811 166.76 229.224C166.76 228.659 166.867 228.131 167.08 227.64C167.293 227.149 167.587 226.717 167.96 226.344C168.333 225.971 168.76 225.683 169.24 225.48C169.731 225.267 170.253 225.16 170.808 225.16C171.555 225.16 172.232 225.341 172.84 225.704C173.448 226.056 173.933 226.536 174.296 227.144C174.659 227.752 174.84 228.44 174.84 229.208C174.84 229.816 174.728 230.371 174.504 230.872C174.28 231.363 173.976 231.789 173.592 232.152C173.208 232.504 172.776 232.776 172.296 232.968C171.827 233.16 171.341 233.256 170.84 233.256ZM170.808 231.368C171.16 231.368 171.496 231.283 171.816 231.112C172.147 230.931 172.413 230.675 172.616 230.344C172.829 230.013 172.936 229.624 172.936 229.176C172.936 228.76 172.84 228.392 172.648 228.072C172.467 227.752 172.216 227.501 171.896 227.32C171.576 227.139 171.208 227.048 170.792 227.048C170.397 227.048 170.04 227.144 169.72 227.336C169.4 227.517 169.144 227.773 168.952 228.104C168.771 228.424 168.68 228.787 168.68 229.192C168.68 229.64 168.781 230.029 168.984 230.36C169.187 230.68 169.448 230.931 169.768 231.112C170.099 231.283 170.445 231.368 170.808 231.368ZM178.665 233.144C178.452 233.144 178.281 233.101 178.153 233.016C178.036 232.941 177.945 232.845 177.881 232.728C177.828 232.611 177.78 232.504 177.737 232.408L175.385 226.456C175.321 226.253 175.289 226.083 175.289 225.944C175.3 225.805 175.353 225.688 175.449 225.592C175.556 225.485 175.71 225.395 175.913 225.32C176.254 225.181 176.521 225.144 176.713 225.208C176.916 225.272 177.065 225.453 177.161 225.752L178.681 229.784L180.057 225.928C180.089 225.832 180.137 225.731 180.201 225.624C180.265 225.517 180.356 225.427 180.473 225.352C180.601 225.267 180.772 225.224 180.985 225.224C181.209 225.224 181.385 225.267 181.513 225.352C181.641 225.427 181.737 225.517 181.801 225.624C181.876 225.731 181.924 225.832 181.945 225.928L183.321 229.816L184.777 225.896C184.905 225.565 185.065 225.347 185.257 225.24C185.449 225.133 185.71 225.144 186.041 225.272C186.34 225.4 186.542 225.56 186.649 225.752C186.756 225.933 186.745 226.173 186.617 226.472L184.249 232.408C184.206 232.515 184.153 232.627 184.089 232.744C184.036 232.851 183.945 232.941 183.817 233.016C183.7 233.101 183.54 233.144 183.337 233.144C183.124 233.144 182.953 233.107 182.825 233.032C182.708 232.968 182.617 232.877 182.553 232.76C182.489 232.643 182.436 232.52 182.393 232.392L181.001 228.44L179.609 232.392C179.545 232.541 179.486 232.675 179.433 232.792C179.38 232.909 179.294 232.995 179.177 233.048C179.06 233.112 178.889 233.144 178.665 233.144Z" fill="#3A055E"/>
<mask id="path-2-inside-1_27_12" fill="white">
<rect x="42" y="35" width="120" height="120" rx="8"/>
</mask>
<rect x="42" y="35" width="120" height="120" rx="8" stroke="#3A055E" stroke-width="24" mask="url(#path-2-inside-1_27_12)"/>
<mask id="path-3-inside-2_27_12" fill="white">
<rect x="94" y="87" width="120" height="120" rx="8"/>
</mask>
<rect x="94" y="87" width="120" height="120" rx="8" stroke="#C878FF" stroke-width="24" mask="url(#path-3-inside-2_27_12)"/>
<rect x="150" y="87" width="12" height="12" fill="#3A055E"/>
<path d="M106 99H150L124 125L106 143V99Z" fill="#C878FF"/>
<path d="M150 143H106L132 117L150 99V143Z" fill="#3A055E"/>
</svg>
