<svg width="512" height="512" viewBox="0 0 512 512" fill="none" xmlns="http://www.w3.org/2000/svg">
<rect width="512" height="512" fill="white"/>
<mask id="path-1-inside-1_27_2" fill="white">
<rect x="84" y="84" width="240" height="240" rx="16"/>
</mask>
<rect x="84" y="84" width="240" height="240" rx="16" stroke="#3A055E" stroke-width="48" mask="url(#path-1-inside-1_27_2)"/>
<mask id="path-2-inside-2_27_2" fill="white">
<rect x="188" y="188" width="240" height="240" rx="16"/>
</mask>
<rect x="188" y="188" width="240" height="240" rx="16" stroke="#C878FF" stroke-width="48" mask="url(#path-2-inside-2_27_2)"/>
<rect x="300" y="188" width="24" height="24" fill="#3A055E"/>
<path d="M212 212H300L248 264L212 300V212Z" fill="#C878FF"/>
<path d="M300 300H212L264 248L300 212V300Z" fill="#3A055E"/>
<path d="M139.52 471.288C138.944 471.288 138.517 471.203 138.24 471.032C137.984 470.861 137.824 470.627 137.76 470.328C137.696 470.029 137.664 469.709 137.664 469.368V457.4C137.664 457.059 137.696 456.749 137.76 456.472C137.824 456.195 137.995 455.971 138.272 455.8C138.549 455.629 138.987 455.544 139.584 455.544C140.203 455.544 140.651 455.672 140.928 455.928C141.227 456.184 141.376 456.589 141.376 457.144L141.088 458.04C141.195 457.805 141.376 457.549 141.632 457.272C141.888 456.995 142.197 456.717 142.56 456.44C142.944 456.163 143.371 455.939 143.84 455.768C144.309 455.597 144.8 455.512 145.312 455.512C146.016 455.512 146.656 455.629 147.232 455.864C147.829 456.099 148.352 456.44 148.8 456.888C149.269 457.336 149.675 457.88 150.016 458.52C150.379 457.965 150.784 457.464 151.232 457.016C151.68 456.547 152.203 456.184 152.8 455.928C153.397 455.651 154.069 455.512 154.816 455.512C156.053 455.512 157.088 455.821 157.92 456.44C158.773 457.059 159.413 457.944 159.84 459.096C160.288 460.227 160.512 461.581 160.512 463.16V469.368C160.512 469.731 160.469 470.061 160.384 470.36C160.32 470.637 160.149 470.861 159.872 471.032C159.616 471.203 159.189 471.288 158.592 471.288C157.995 471.288 157.557 471.192 157.28 471C157.003 470.829 156.832 470.605 156.768 470.328C156.704 470.029 156.672 469.699 156.672 469.336V463.128C156.672 462.339 156.576 461.656 156.384 461.08C156.192 460.504 155.904 460.056 155.52 459.736C155.157 459.416 154.677 459.256 154.08 459.256C153.44 459.256 152.885 459.416 152.416 459.736C151.968 460.035 151.616 460.472 151.36 461.048C151.104 461.624 150.976 462.328 150.976 463.16V469.4C150.976 469.763 150.923 470.104 150.816 470.424C150.709 470.723 150.496 470.947 150.176 471.096C149.877 471.267 149.44 471.331 148.864 471.288C148.331 471.267 147.936 471.16 147.68 470.968C147.445 470.776 147.296 470.541 147.232 470.264C147.189 469.965 147.168 469.656 147.168 469.336V463.128C147.168 462.339 147.072 461.656 146.88 461.08C146.688 460.483 146.4 460.035 146.016 459.736C145.653 459.416 145.163 459.256 144.544 459.256C143.883 459.256 143.317 459.427 142.848 459.768C142.4 460.109 142.059 460.568 141.824 461.144C141.589 461.72 141.472 462.381 141.472 463.128V469.4C141.472 469.741 141.429 470.061 141.344 470.36C141.28 470.659 141.109 470.883 140.832 471.032C140.576 471.203 140.139 471.288 139.52 471.288ZM176.847 471.256C176.228 471.256 175.769 471.139 175.471 470.904C175.172 470.669 175.023 470.349 175.023 469.944L175.247 468.888C175.076 469.165 174.788 469.496 174.383 469.88C173.977 470.243 173.444 470.573 172.783 470.872C172.121 471.149 171.321 471.288 170.383 471.288C169.38 471.288 168.431 471.085 167.535 470.68C166.66 470.253 165.881 469.677 165.199 468.952C164.537 468.205 164.004 467.363 163.599 466.424C163.215 465.464 163.023 464.44 163.023 463.352C163.023 462.307 163.215 461.325 163.599 460.408C164.004 459.469 164.548 458.637 165.231 457.912C165.913 457.187 166.692 456.621 167.567 456.216C168.463 455.789 169.401 455.576 170.383 455.576C171.257 455.576 171.993 455.693 172.591 455.928C173.209 456.163 173.732 456.461 174.159 456.824C174.585 457.165 174.937 457.528 175.215 457.912L175.023 456.984C175.023 456.515 175.172 456.163 175.471 455.928C175.769 455.672 176.239 455.544 176.879 455.544C177.476 455.544 177.903 455.64 178.159 455.832C178.415 456.003 178.575 456.248 178.639 456.568C178.703 456.867 178.735 457.208 178.735 457.592V469.304C178.735 469.667 178.703 469.997 178.639 470.296C178.575 470.595 178.404 470.829 178.127 471C177.871 471.171 177.444 471.256 176.847 471.256ZM170.959 467.544C171.684 467.544 172.335 467.363 172.911 467C173.487 466.637 173.945 466.147 174.287 465.528C174.649 464.888 174.831 464.184 174.831 463.416C174.831 462.584 174.649 461.859 174.287 461.24C173.924 460.621 173.444 460.141 172.847 459.8C172.271 459.437 171.62 459.256 170.895 459.256C170.105 459.256 169.401 459.448 168.783 459.832C168.164 460.195 167.673 460.696 167.311 461.336C166.969 461.955 166.799 462.659 166.799 463.448C166.799 464.216 166.98 464.909 167.343 465.528C167.705 466.147 168.196 466.637 168.815 467C169.455 467.363 170.169 467.544 170.959 467.544ZM185.288 477.624C184.606 477.325 184.211 476.984 184.104 476.6C183.998 476.237 184.094 475.747 184.392 475.128L192.648 456.632C192.947 455.949 193.267 455.544 193.608 455.416C193.95 455.267 194.472 455.341 195.176 455.64C195.838 455.939 196.222 456.269 196.328 456.632C196.456 456.995 196.382 457.485 196.104 458.104L187.784 476.696C187.507 477.379 187.198 477.773 186.856 477.88C186.515 478.008 185.992 477.923 185.288 477.624ZM188.264 469.784L180.872 458.424C180.488 457.848 180.328 457.368 180.392 456.984C180.478 456.6 180.819 456.227 181.416 455.864C182.078 455.459 182.59 455.299 182.952 455.384C183.336 455.469 183.72 455.811 184.104 456.408L189.96 465.528L188.264 469.784ZM206.919 471.288C205.874 471.288 204.935 471.085 204.103 470.68C203.293 470.253 202.599 469.677 202.023 468.952C201.469 468.227 201.042 467.395 200.743 466.456C200.466 465.496 200.327 464.472 200.327 463.384C200.349 462.296 200.509 461.283 200.807 460.344C201.106 459.384 201.533 458.552 202.087 457.848C202.663 457.123 203.357 456.557 204.167 456.152C204.978 455.747 205.895 455.544 206.919 455.544C207.901 455.544 208.818 455.747 209.671 456.152C210.546 456.557 211.314 457.123 211.975 457.848C212.658 458.552 213.191 459.384 213.575 460.344C213.959 461.283 214.151 462.285 214.151 463.352C214.151 464.461 213.959 465.507 213.575 466.488C213.191 467.448 212.669 468.291 212.007 469.016C211.346 469.72 210.578 470.275 209.703 470.68C208.829 471.085 207.901 471.288 206.919 471.288ZM206.407 467.544C207.154 467.544 207.826 467.373 208.423 467.032C209.021 466.669 209.49 466.179 209.831 465.56C210.194 464.941 210.375 464.237 210.375 463.448C210.375 462.637 210.194 461.923 209.831 461.304C209.49 460.664 209.021 460.173 208.423 459.832C207.826 459.469 207.154 459.288 206.407 459.288C205.682 459.288 205.021 459.469 204.423 459.832C203.826 460.195 203.346 460.685 202.983 461.304C202.642 461.923 202.471 462.637 202.471 463.448C202.471 464.237 202.642 464.941 202.983 465.56C203.346 466.179 203.826 466.669 204.423 467.032C205.021 467.373 205.682 467.544 206.407 467.544ZM200.487 471.32C199.911 471.32 199.485 471.224 199.207 471.032C198.93 470.861 198.759 470.637 198.695 470.36C198.631 470.061 198.599 469.731 198.599 469.368V450.296C198.599 449.933 198.631 449.613 198.695 449.336C198.759 449.037 198.93 448.803 199.207 448.632C199.485 448.461 199.911 448.376 200.487 448.376C201.085 448.376 201.511 448.461 201.767 448.632C202.023 448.803 202.183 449.037 202.247 449.336C202.311 449.635 202.343 449.955 202.343 450.296V470.008C202.258 470.477 202.077 470.808 201.799 471C201.543 471.213 201.106 471.32 200.487 471.32ZM224.655 471.512C223.268 471.512 222.052 471.288 221.007 470.84C219.983 470.392 219.119 469.784 218.415 469.016C217.732 468.227 217.21 467.352 216.847 466.392C216.506 465.411 216.335 464.397 216.335 463.352C216.335 461.816 216.687 460.451 217.391 459.256C218.095 458.061 219.066 457.123 220.303 456.44C221.562 455.757 223.002 455.416 224.623 455.416C225.775 455.416 226.788 455.597 227.663 455.96C228.538 456.323 229.263 456.803 229.839 457.4C230.436 457.976 230.884 458.616 231.183 459.32C231.503 460.024 231.663 460.707 231.663 461.368C231.663 462.499 231.386 463.32 230.831 463.832C230.298 464.344 229.626 464.6 228.815 464.6H220.367C220.388 465.325 220.612 465.955 221.039 466.488C221.487 467.021 222.042 467.437 222.703 467.736C223.386 468.013 224.079 468.152 224.783 468.152C225.316 468.152 225.786 468.12 226.191 468.056C226.618 467.992 226.98 467.917 227.279 467.832C227.578 467.725 227.834 467.619 228.047 467.512C228.282 467.405 228.495 467.309 228.687 467.224C228.879 467.139 229.06 467.085 229.231 467.064C229.466 467.043 229.7 467.096 229.935 467.224C230.17 467.352 230.362 467.576 230.511 467.896C230.639 468.109 230.724 468.312 230.767 468.504C230.831 468.675 230.863 468.845 230.863 469.016C230.863 469.443 230.607 469.848 230.095 470.232C229.583 470.595 228.858 470.893 227.919 471.128C227.002 471.384 225.914 471.512 224.655 471.512ZM220.367 462.328H226.927C227.29 462.328 227.567 462.275 227.759 462.168C227.951 462.04 228.047 461.784 228.047 461.4C228.047 460.909 227.898 460.472 227.599 460.088C227.3 459.683 226.895 459.373 226.383 459.16C225.871 458.925 225.274 458.808 224.591 458.808C223.802 458.808 223.087 458.968 222.447 459.288C221.807 459.587 221.295 460.003 220.911 460.536C220.548 461.069 220.367 461.667 220.367 462.328ZM241.753 471.32C240.707 471.32 239.811 471.213 239.065 471C238.318 470.787 237.71 470.456 237.241 470.008C236.771 469.56 236.419 468.984 236.185 468.28C235.971 467.555 235.865 466.701 235.865 465.72V452.152C235.865 451.768 235.897 451.437 235.961 451.16C236.046 450.883 236.217 450.669 236.473 450.52C236.75 450.349 237.177 450.264 237.753 450.264C238.35 450.264 238.777 450.349 239.033 450.52C239.31 450.691 239.481 450.925 239.545 451.224C239.63 451.501 239.673 451.811 239.673 452.152V465.592C239.673 466.04 239.705 466.403 239.769 466.68C239.854 466.957 239.971 467.171 240.121 467.32C240.291 467.448 240.505 467.544 240.76 467.608C241.038 467.651 241.369 467.672 241.753 467.672C242.158 467.672 242.499 467.704 242.777 467.768C243.075 467.832 243.299 467.992 243.449 468.248C243.598 468.483 243.673 468.877 243.673 469.432C243.673 470.029 243.577 470.467 243.385 470.744C243.214 471 242.979 471.16 242.681 471.224C242.403 471.288 242.094 471.32 241.753 471.32ZM234.553 455.864L237.849 455.896L242.265 455.768C242.627 455.768 242.947 455.811 243.225 455.896C243.523 455.96 243.758 456.131 243.929 456.408C244.099 456.664 244.185 457.091 244.185 457.688C244.185 458.243 244.099 458.659 243.929 458.936C243.758 459.213 243.534 459.395 243.257 459.48C242.979 459.544 242.659 459.576 242.297 459.576L238.009 459.512L234.457 459.544C233.923 459.523 233.55 459.373 233.337 459.096C233.145 458.797 233.049 458.317 233.049 457.656C233.049 457.037 233.166 456.589 233.401 456.312C233.657 456.013 234.041 455.864 234.553 455.864ZM253.93 471.512C252.906 471.512 251.904 471.32 250.922 470.936C249.962 470.531 249.088 469.965 248.298 469.24C247.53 468.515 246.912 467.661 246.442 466.68C245.994 465.699 245.77 464.621 245.77 463.448C245.77 462.317 245.984 461.261 246.41 460.28C246.837 459.299 247.424 458.435 248.17 457.688C248.917 456.941 249.77 456.365 250.73 455.96C251.712 455.533 252.757 455.32 253.866 455.32C255.36 455.32 256.714 455.683 257.93 456.408C259.146 457.112 260.117 458.072 260.842 459.288C261.568 460.504 261.93 461.88 261.93 463.416C261.93 464.632 261.706 465.741 261.258 466.744C260.81 467.725 260.202 468.579 259.434 469.304C258.666 470.008 257.802 470.552 256.842 470.936C255.904 471.32 254.933 471.512 253.93 471.512ZM253.866 467.736C254.57 467.736 255.242 467.565 255.882 467.224C256.544 466.861 257.077 466.349 257.482 465.688C257.909 465.027 258.122 464.248 258.122 463.352C258.122 462.52 257.93 461.784 257.546 461.144C257.184 460.504 256.682 460.003 256.042 459.64C255.402 459.277 254.666 459.096 253.834 459.096C253.045 459.096 252.33 459.288 251.69 459.672C251.05 460.035 250.538 460.547 250.154 461.208C249.792 461.848 249.61 462.573 249.61 463.384C249.61 464.28 249.813 465.059 250.218 465.72C250.624 466.36 251.146 466.861 251.786 467.224C252.448 467.565 253.141 467.736 253.866 467.736ZM266.301 471.288C265.725 471.288 265.299 471.203 265.021 471.032C264.765 470.861 264.605 470.627 264.541 470.328C264.477 470.029 264.445 469.709 264.445 469.368V457.4C264.445 457.059 264.477 456.749 264.541 456.472C264.605 456.195 264.776 455.971 265.053 455.8C265.331 455.629 265.768 455.544 266.365 455.544C266.984 455.544 267.432 455.672 267.709 455.928C268.008 456.184 268.157 456.589 268.157 457.144L267.869 458.04C267.976 457.805 268.157 457.549 268.413 457.272C268.669 456.995 268.979 456.717 269.341 456.44C269.725 456.163 270.152 455.939 270.621 455.768C271.091 455.597 271.581 455.512 272.093 455.512C272.797 455.512 273.437 455.629 274.013 455.864C274.611 456.099 275.133 456.44 275.581 456.888C276.051 457.336 276.456 457.88 276.797 458.52C277.16 457.965 277.565 457.464 278.013 457.016C278.461 456.547 278.984 456.184 279.581 455.928C280.179 455.651 280.851 455.512 281.597 455.512C282.835 455.512 283.869 455.821 284.701 456.44C285.555 457.059 286.195 457.944 286.621 459.096C287.069 460.227 287.293 461.581 287.293 463.16V469.368C287.293 469.731 287.251 470.061 287.165 470.36C287.101 470.637 286.931 470.861 286.653 471.032C286.397 471.203 285.971 471.288 285.373 471.288C284.776 471.288 284.339 471.192 284.061 471C283.784 470.829 283.613 470.605 283.549 470.328C283.485 470.029 283.453 469.699 283.453 469.336V463.128C283.453 462.339 283.357 461.656 283.165 461.08C282.973 460.504 282.685 460.056 282.301 459.736C281.939 459.416 281.459 459.256 280.861 459.256C280.221 459.256 279.667 459.416 279.197 459.736C278.749 460.035 278.397 460.472 278.141 461.048C277.885 461.624 277.757 462.328 277.757 463.16V469.4C277.757 469.763 277.704 470.104 277.597 470.424C277.491 470.723 277.277 470.947 276.957 471.096C276.659 471.267 276.221 471.331 275.645 471.288C275.112 471.267 274.717 471.16 274.461 470.968C274.227 470.776 274.077 470.541 274.013 470.264C273.971 469.965 273.949 469.656 273.949 469.336V463.128C273.949 462.339 273.853 461.656 273.661 461.08C273.469 460.483 273.181 460.035 272.797 459.736C272.435 459.416 271.944 459.256 271.325 459.256C270.664 459.256 270.099 459.427 269.629 459.768C269.181 460.109 268.84 460.568 268.605 461.144C268.371 461.72 268.253 462.381 268.253 463.128V469.4C268.253 469.741 268.211 470.061 268.125 470.36C268.061 470.659 267.891 470.883 267.613 471.032C267.357 471.203 266.92 471.288 266.301 471.288ZM297.868 471.512C296.844 471.512 295.841 471.32 294.86 470.936C293.9 470.531 293.025 469.965 292.236 469.24C291.468 468.515 290.849 467.661 290.38 466.68C289.932 465.699 289.708 464.621 289.708 463.448C289.708 462.317 289.921 461.261 290.348 460.28C290.774 459.299 291.361 458.435 292.108 457.688C292.854 456.941 293.708 456.365 294.668 455.96C295.649 455.533 296.694 455.32 297.804 455.32C299.297 455.32 300.652 455.683 301.868 456.408C303.084 457.112 304.054 458.072 304.78 459.288C305.505 460.504 305.868 461.88 305.868 463.416C305.868 464.632 305.644 465.741 305.196 466.744C304.748 467.725 304.14 468.579 303.372 469.304C302.604 470.008 301.74 470.552 300.78 470.936C299.841 471.32 298.87 471.512 297.868 471.512ZM297.804 467.736C298.508 467.736 299.18 467.565 299.82 467.224C300.481 466.861 301.014 466.349 301.42 465.688C301.846 465.027 302.06 464.248 302.06 463.352C302.06 462.52 301.868 461.784 301.484 461.144C301.121 460.504 300.62 460.003 299.98 459.64C299.34 459.277 298.604 459.096 297.772 459.096C296.982 459.096 296.268 459.288 295.628 459.672C294.988 460.035 294.476 460.547 294.092 461.208C293.729 461.848 293.548 462.573 293.548 463.384C293.548 464.28 293.75 465.059 294.156 465.72C294.561 466.36 295.084 466.861 295.724 467.224C296.385 467.565 297.078 467.736 297.804 467.736ZM310.271 471.32C309.695 471.32 309.268 471.224 308.991 471.032C308.735 470.861 308.575 470.627 308.511 470.328C308.447 470.029 308.415 469.699 308.415 469.336V457.464C308.415 457.08 308.447 456.749 308.511 456.472C308.575 456.173 308.735 455.949 308.991 455.8C309.268 455.629 309.705 455.544 310.303 455.544C310.879 455.544 311.295 455.619 311.551 455.768C311.828 455.917 311.999 456.109 312.063 456.344C312.148 456.557 312.191 456.771 312.191 456.984L311.935 457.56C312.041 457.389 312.191 457.187 312.383 456.952C312.575 456.696 312.831 456.451 313.151 456.216C313.471 455.96 313.855 455.757 314.303 455.608C314.751 455.437 315.284 455.352 315.903 455.352C316.159 455.352 316.425 455.384 316.703 455.448C317.001 455.491 317.289 455.565 317.567 455.672C317.865 455.757 318.132 455.875 318.367 456.024C318.601 456.173 318.783 456.355 318.911 456.568C319.039 456.76 319.103 456.984 319.103 457.24C319.103 457.923 318.932 458.499 318.591 458.968C318.249 459.437 317.844 459.672 317.375 459.672C317.055 459.672 316.82 459.64 316.671 459.576C316.521 459.512 316.393 459.437 316.287 459.352C316.201 459.267 316.063 459.192 315.871 459.128C315.7 459.064 315.423 459.032 315.039 459.032C314.719 459.032 314.388 459.085 314.047 459.192C313.727 459.299 313.428 459.459 313.151 459.672C312.873 459.885 312.649 460.163 312.479 460.504C312.308 460.824 312.223 461.197 312.223 461.624V469.4C312.223 469.763 312.191 470.093 312.127 470.392C312.063 470.669 311.892 470.893 311.615 471.064C311.337 471.235 310.889 471.32 310.271 471.32ZM323.552 471.32C322.976 471.32 322.549 471.224 322.272 471.032C322.016 470.861 321.856 470.627 321.792 470.328C321.728 470.029 321.696 469.699 321.696 469.336V457.464C321.696 457.08 321.728 456.749 321.792 456.472C321.856 456.173 322.016 455.949 322.272 455.8C322.549 455.629 322.987 455.544 323.584 455.544C324.16 455.544 324.576 455.619 324.832 455.768C325.109 455.917 325.28 456.109 325.344 456.344C325.429 456.557 325.472 456.771 325.472 456.984L325.216 457.56C325.323 457.389 325.472 457.187 325.664 456.952C325.856 456.696 326.112 456.451 326.432 456.216C326.752 455.96 327.136 455.757 327.584 455.608C328.032 455.437 328.565 455.352 329.184 455.352C329.44 455.352 329.707 455.384 329.984 455.448C330.283 455.491 330.571 455.565 330.848 455.672C331.147 455.757 331.413 455.875 331.648 456.024C331.883 456.173 332.064 456.355 332.192 456.568C332.32 456.76 332.384 456.984 332.384 457.24C332.384 457.923 332.213 458.499 331.872 458.968C331.531 459.437 331.125 459.672 330.656 459.672C330.336 459.672 330.101 459.64 329.952 459.576C329.803 459.512 329.675 459.437 329.568 459.352C329.483 459.267 329.344 459.192 329.152 459.128C328.981 459.064 328.704 459.032 328.32 459.032C328 459.032 327.669 459.085 327.328 459.192C327.008 459.299 326.709 459.459 326.432 459.672C326.155 459.885 325.931 460.163 325.76 460.504C325.589 460.824 325.504 461.197 325.504 461.624V469.4C325.504 469.763 325.472 470.093 325.408 470.392C325.344 470.669 325.173 470.893 324.896 471.064C324.619 471.235 324.171 471.32 323.552 471.32ZM341.68 471.512C340.656 471.512 339.654 471.32 338.672 470.936C337.712 470.531 336.838 469.965 336.048 469.24C335.28 468.515 334.662 467.661 334.192 466.68C333.744 465.699 333.52 464.621 333.52 463.448C333.52 462.317 333.734 461.261 334.16 460.28C334.587 459.299 335.174 458.435 335.92 457.688C336.667 456.941 337.52 456.365 338.48 455.96C339.462 455.533 340.507 455.32 341.616 455.32C343.11 455.32 344.464 455.683 345.68 456.408C346.896 457.112 347.867 458.072 348.592 459.288C349.318 460.504 349.68 461.88 349.68 463.416C349.68 464.632 349.456 465.741 349.008 466.744C348.56 467.725 347.952 468.579 347.184 469.304C346.416 470.008 345.552 470.552 344.592 470.936C343.654 471.32 342.683 471.512 341.68 471.512ZM341.616 467.736C342.32 467.736 342.992 467.565 343.632 467.224C344.294 466.861 344.827 466.349 345.232 465.688C345.659 465.027 345.872 464.248 345.872 463.352C345.872 462.52 345.68 461.784 345.296 461.144C344.934 460.504 344.432 460.003 343.792 459.64C343.152 459.277 342.416 459.096 341.584 459.096C340.795 459.096 340.08 459.288 339.44 459.672C338.8 460.035 338.288 460.547 337.904 461.208C337.542 461.848 337.36 462.573 337.36 463.384C337.36 464.28 337.563 465.059 337.968 465.72C338.374 466.36 338.896 466.861 339.536 467.224C340.198 467.565 340.891 467.736 341.616 467.736ZM357.33 471.288C356.904 471.288 356.562 471.203 356.306 471.032C356.072 470.883 355.89 470.691 355.762 470.456C355.656 470.221 355.56 470.008 355.474 469.816L350.77 457.912C350.642 457.507 350.578 457.165 350.578 456.888C350.6 456.611 350.706 456.376 350.898 456.184C351.112 455.971 351.421 455.789 351.826 455.64C352.509 455.363 353.042 455.288 353.426 455.416C353.832 455.544 354.13 455.907 354.322 456.504L357.362 464.568L360.114 456.856C360.178 456.664 360.274 456.461 360.402 456.248C360.53 456.035 360.712 455.853 360.946 455.704C361.202 455.533 361.544 455.448 361.97 455.448C362.418 455.448 362.77 455.533 363.026 455.704C363.282 455.853 363.474 456.035 363.602 456.248C363.752 456.461 363.848 456.664 363.89 456.856L366.642 464.632L369.554 456.792C369.81 456.131 370.13 455.693 370.514 455.48C370.898 455.267 371.421 455.288 372.082 455.544C372.68 455.8 373.085 456.12 373.298 456.504C373.512 456.867 373.49 457.347 373.234 457.944L368.498 469.816C368.413 470.029 368.306 470.253 368.178 470.488C368.072 470.701 367.89 470.883 367.634 471.032C367.4 471.203 367.08 471.288 366.674 471.288C366.248 471.288 365.906 471.213 365.65 471.064C365.416 470.936 365.234 470.755 365.106 470.52C364.978 470.285 364.872 470.04 364.786 469.784L362.002 461.88L359.218 469.784C359.09 470.083 358.973 470.349 358.866 470.584C358.76 470.819 358.589 470.989 358.354 471.096C358.12 471.224 357.778 471.288 357.33 471.288Z" fill="#3A055E"/>
</svg>
