<svg width="128" height="128" viewBox="0 0 128 128" fill="none" xmlns="http://www.w3.org/2000/svg">
<rect width="128" height="128" fill="white"/>
<path d="M5.76 120.144C5.472 120.144 5.25867 120.101 5.12 120.016C4.992 119.931 4.912 119.813 4.88 119.664C4.848 119.515 4.832 119.355 4.832 119.184V113.2C4.832 113.029 4.848 112.875 4.88 112.736C4.912 112.597 4.99733 112.485 5.136 112.4C5.27467 112.315 5.49333 112.272 5.792 112.272C6.10133 112.272 6.32533 112.336 6.464 112.464C6.61333 112.592 6.688 112.795 6.688 113.072L6.544 113.52C6.59733 113.403 6.688 113.275 6.816 113.136C6.944 112.997 7.09867 112.859 7.28 112.72C7.472 112.581 7.68533 112.469 7.92 112.384C8.15467 112.299 8.4 112.256 8.656 112.256C9.008 112.256 9.328 112.315 9.616 112.432C9.91467 112.549 10.176 112.72 10.4 112.944C10.6347 113.168 10.8373 113.44 11.008 113.76C11.1893 113.483 11.392 113.232 11.616 113.008C11.84 112.773 12.1013 112.592 12.4 112.464C12.6987 112.325 13.0347 112.256 13.408 112.256C14.0267 112.256 14.544 112.411 14.96 112.72C15.3867 113.029 15.7067 113.472 15.92 114.048C16.144 114.613 16.256 115.291 16.256 116.08V119.184C16.256 119.365 16.2347 119.531 16.192 119.68C16.16 119.819 16.0747 119.931 15.936 120.016C15.808 120.101 15.5947 120.144 15.296 120.144C14.9973 120.144 14.7787 120.096 14.64 120C14.5013 119.915 14.416 119.803 14.384 119.664C14.352 119.515 14.336 119.349 14.336 119.168V116.064C14.336 115.669 14.288 115.328 14.192 115.04C14.096 114.752 13.952 114.528 13.76 114.368C13.5787 114.208 13.3387 114.128 13.04 114.128C12.72 114.128 12.4427 114.208 12.208 114.368C11.984 114.517 11.808 114.736 11.68 115.024C11.552 115.312 11.488 115.664 11.488 116.08V119.2C11.488 119.381 11.4613 119.552 11.408 119.712C11.3547 119.861 11.248 119.973 11.088 120.048C10.9387 120.133 10.72 120.165 10.432 120.144C10.1653 120.133 9.968 120.08 9.84 119.984C9.72267 119.888 9.648 119.771 9.616 119.632C9.59467 119.483 9.584 119.328 9.584 119.168V116.064C9.584 115.669 9.536 115.328 9.44 115.04C9.344 114.741 9.2 114.517 9.008 114.368C8.82667 114.208 8.58133 114.128 8.272 114.128C7.94133 114.128 7.65867 114.213 7.424 114.384C7.2 114.555 7.02933 114.784 6.912 115.072C6.79467 115.36 6.736 115.691 6.736 116.064V119.2C6.736 119.371 6.71467 119.531 6.672 119.68C6.64 119.829 6.55467 119.941 6.416 120.016C6.288 120.101 6.06933 120.144 5.76 120.144ZM24.4233 120.128C24.1139 120.128 23.8846 120.069 23.7353 119.952C23.5859 119.835 23.5113 119.675 23.5113 119.472L23.6233 118.944C23.5379 119.083 23.3939 119.248 23.1913 119.44C22.9886 119.621 22.7219 119.787 22.3913 119.936C22.0606 120.075 21.6606 120.144 21.1913 120.144C20.6899 120.144 20.2153 120.043 19.7673 119.84C19.3299 119.627 18.9406 119.339 18.5993 118.976C18.2686 118.603 18.0019 118.181 17.7993 117.712C17.6073 117.232 17.5113 116.72 17.5113 116.176C17.5113 115.653 17.6073 115.163 17.7993 114.704C18.0019 114.235 18.2739 113.819 18.6153 113.456C18.9566 113.093 19.3459 112.811 19.7833 112.608C20.2313 112.395 20.7006 112.288 21.1913 112.288C21.6286 112.288 21.9966 112.347 22.2953 112.464C22.6046 112.581 22.8659 112.731 23.0793 112.912C23.2926 113.083 23.4686 113.264 23.6073 113.456L23.5113 112.992C23.5113 112.757 23.5859 112.581 23.7353 112.464C23.8846 112.336 24.1193 112.272 24.4393 112.272C24.7379 112.272 24.9513 112.32 25.0793 112.416C25.2073 112.501 25.2873 112.624 25.3193 112.784C25.3513 112.933 25.3673 113.104 25.3673 113.296V119.152C25.3673 119.333 25.3513 119.499 25.3193 119.648C25.2873 119.797 25.2019 119.915 25.0633 120C24.9353 120.085 24.7219 120.128 24.4233 120.128ZM21.4793 118.272C21.8419 118.272 22.1673 118.181 22.4553 118C22.7433 117.819 22.9726 117.573 23.1433 117.264C23.3246 116.944 23.4153 116.592 23.4153 116.208C23.4153 115.792 23.3246 115.429 23.1433 115.12C22.9619 114.811 22.7219 114.571 22.4233 114.4C22.1353 114.219 21.8099 114.128 21.4473 114.128C21.0526 114.128 20.7006 114.224 20.3913 114.416C20.0819 114.597 19.8366 114.848 19.6553 115.168C19.4846 115.477 19.3993 115.829 19.3993 116.224C19.3993 116.608 19.4899 116.955 19.6713 117.264C19.8526 117.573 20.0979 117.819 20.4073 118C20.7273 118.181 21.0846 118.272 21.4793 118.272ZM28.6441 123.312C28.3028 123.163 28.1055 122.992 28.0521 122.8C27.9988 122.619 28.0468 122.373 28.1961 122.064L32.3241 112.816C32.4735 112.475 32.6335 112.272 32.8041 112.208C32.9748 112.133 33.2361 112.171 33.5881 112.32C33.9188 112.469 34.1108 112.635 34.1641 112.816C34.2281 112.997 34.1908 113.243 34.0521 113.552L29.8921 122.848C29.7535 123.189 29.5988 123.387 29.4281 123.44C29.2575 123.504 28.9961 123.461 28.6441 123.312ZM30.1321 119.392L26.4361 113.712C26.2441 113.424 26.1641 113.184 26.1961 112.992C26.2388 112.8 26.4095 112.613 26.7081 112.432C27.0388 112.229 27.2948 112.149 27.4761 112.192C27.6681 112.235 27.8601 112.405 28.0521 112.704L30.9801 117.264L30.1321 119.392ZM39.4596 120.144C38.937 120.144 38.4676 120.043 38.0516 119.84C37.6463 119.627 37.2996 119.339 37.0116 118.976C36.7343 118.613 36.521 118.197 36.3716 117.728C36.233 117.248 36.1636 116.736 36.1636 116.192C36.1743 115.648 36.2543 115.141 36.4036 114.672C36.553 114.192 36.7663 113.776 37.0436 113.424C37.3316 113.061 37.6783 112.779 38.0836 112.576C38.489 112.373 38.9476 112.272 39.4596 112.272C39.9503 112.272 40.409 112.373 40.8356 112.576C41.273 112.779 41.657 113.061 41.9876 113.424C42.329 113.776 42.5956 114.192 42.7876 114.672C42.9796 115.141 43.0756 115.643 43.0756 116.176C43.0756 116.731 42.9796 117.253 42.7876 117.744C42.5956 118.224 42.3343 118.645 42.0036 119.008C41.673 119.36 41.289 119.637 40.8516 119.84C40.4143 120.043 39.9503 120.144 39.4596 120.144ZM39.2036 118.272C39.577 118.272 39.913 118.187 40.2116 118.016C40.5103 117.835 40.745 117.589 40.9156 117.28C41.097 116.971 41.1876 116.619 41.1876 116.224C41.1876 115.819 41.097 115.461 40.9156 115.152C40.745 114.832 40.5103 114.587 40.2116 114.416C39.913 114.235 39.577 114.144 39.2036 114.144C38.841 114.144 38.5103 114.235 38.2116 114.416C37.913 114.597 37.673 114.843 37.4916 115.152C37.321 115.461 37.2356 115.819 37.2356 116.224C37.2356 116.619 37.321 116.971 37.4916 117.28C37.673 117.589 37.913 117.835 38.2116 118.016C38.5103 118.187 38.841 118.272 39.2036 118.272ZM36.2436 120.16C35.9556 120.16 35.7423 120.112 35.6036 120.016C35.465 119.931 35.3796 119.819 35.3476 119.68C35.3156 119.531 35.2996 119.365 35.2996 119.184V109.648C35.2996 109.467 35.3156 109.307 35.3476 109.168C35.3796 109.019 35.465 108.901 35.6036 108.816C35.7423 108.731 35.9556 108.688 36.2436 108.688C36.5423 108.688 36.7556 108.731 36.8836 108.816C37.0116 108.901 37.0916 109.019 37.1236 109.168C37.1556 109.317 37.1716 109.477 37.1716 109.648V119.504C37.129 119.739 37.0383 119.904 36.8996 120C36.7716 120.107 36.553 120.16 36.2436 120.16ZM48.3275 120.256C47.6342 120.256 47.0262 120.144 46.5035 119.92C45.9915 119.696 45.5595 119.392 45.2075 119.008C44.8662 118.613 44.6048 118.176 44.4235 117.696C44.2528 117.205 44.1675 116.699 44.1675 116.176C44.1675 115.408 44.3435 114.725 44.6955 114.128C45.0475 113.531 45.5328 113.061 46.1515 112.72C46.7808 112.379 47.5008 112.208 48.3115 112.208C48.8875 112.208 49.3942 112.299 49.8315 112.48C50.2688 112.661 50.6315 112.901 50.9195 113.2C51.2182 113.488 51.4422 113.808 51.5915 114.16C51.7515 114.512 51.8315 114.853 51.8315 115.184C51.8315 115.749 51.6928 116.16 51.4155 116.416C51.1488 116.672 50.8128 116.8 50.4075 116.8H46.1835C46.1942 117.163 46.3062 117.477 46.5195 117.744C46.7435 118.011 47.0208 118.219 47.3515 118.368C47.6928 118.507 48.0395 118.576 48.3915 118.576C48.6582 118.576 48.8928 118.56 49.0955 118.528C49.3088 118.496 49.4902 118.459 49.6395 118.416C49.7888 118.363 49.9168 118.309 50.0235 118.256C50.1408 118.203 50.2475 118.155 50.3435 118.112C50.4395 118.069 50.5302 118.043 50.6155 118.032C50.7328 118.021 50.8502 118.048 50.9675 118.112C51.0848 118.176 51.1808 118.288 51.2555 118.448C51.3195 118.555 51.3622 118.656 51.3835 118.752C51.4155 118.837 51.4315 118.923 51.4315 119.008C51.4315 119.221 51.3035 119.424 51.0475 119.616C50.7915 119.797 50.4288 119.947 49.9595 120.064C49.5008 120.192 48.9568 120.256 48.3275 120.256ZM46.1835 115.664H49.4635C49.6448 115.664 49.7835 115.637 49.8795 115.584C49.9755 115.52 50.0235 115.392 50.0235 115.2C50.0235 114.955 49.9488 114.736 49.7995 114.544C49.6502 114.341 49.4475 114.187 49.1915 114.08C48.9355 113.963 48.6368 113.904 48.2955 113.904C47.9008 113.904 47.5435 113.984 47.2235 114.144C46.9035 114.293 46.6475 114.501 46.4555 114.768C46.2742 115.035 46.1835 115.333 46.1835 115.664ZM56.8763 120.16C56.3536 120.16 55.9056 120.107 55.5323 120C55.1589 119.893 54.8549 119.728 54.6203 119.504C54.3856 119.28 54.2096 118.992 54.0923 118.64C53.9856 118.277 53.9323 117.851 53.9323 117.36V110.576C53.9323 110.384 53.9483 110.219 53.9803 110.08C54.0229 109.941 54.1083 109.835 54.2363 109.76C54.3749 109.675 54.5883 109.632 54.8763 109.632C55.1749 109.632 55.3883 109.675 55.5163 109.76C55.6549 109.845 55.7403 109.963 55.7723 110.112C55.8149 110.251 55.8363 110.405 55.8363 110.576V117.296C55.8363 117.52 55.8523 117.701 55.8843 117.84C55.9269 117.979 55.9856 118.085 56.0603 118.16C56.1456 118.224 56.2523 118.272 56.3802 118.304C56.5189 118.325 56.6843 118.336 56.8763 118.336C57.0789 118.336 57.2496 118.352 57.3883 118.384C57.5376 118.416 57.6496 118.496 57.7243 118.624C57.7989 118.741 57.8363 118.939 57.8363 119.216C57.8363 119.515 57.7883 119.733 57.6923 119.872C57.6069 120 57.4896 120.08 57.3403 120.112C57.2016 120.144 57.0469 120.16 56.8763 120.16ZM53.2763 112.432L54.9243 112.448L57.1323 112.384C57.3136 112.384 57.4736 112.405 57.6123 112.448C57.7616 112.48 57.8789 112.565 57.9643 112.704C58.0496 112.832 58.0923 113.045 58.0923 113.344C58.0923 113.621 58.0496 113.829 57.9643 113.968C57.8789 114.107 57.7669 114.197 57.6283 114.24C57.4896 114.272 57.3296 114.288 57.1483 114.288L55.0043 114.256L53.2283 114.272C52.9616 114.261 52.7749 114.187 52.6683 114.048C52.5723 113.899 52.5243 113.659 52.5243 113.328C52.5243 113.019 52.5829 112.795 52.7003 112.656C52.8283 112.507 53.0203 112.432 53.2763 112.432ZM62.9651 120.256C62.4531 120.256 61.9518 120.16 61.4611 119.968C60.9811 119.765 60.5438 119.483 60.1491 119.12C59.7651 118.757 59.4558 118.331 59.2211 117.84C58.9971 117.349 58.8851 116.811 58.8851 116.224C58.8851 115.659 58.9918 115.131 59.2051 114.64C59.4185 114.149 59.7118 113.717 60.0851 113.344C60.4585 112.971 60.8851 112.683 61.3651 112.48C61.8558 112.267 62.3785 112.16 62.9331 112.16C63.6798 112.16 64.3571 112.341 64.9651 112.704C65.5731 113.056 66.0585 113.536 66.4211 114.144C66.7838 114.752 66.9651 115.44 66.9651 116.208C66.9651 116.816 66.8531 117.371 66.6291 117.872C66.4051 118.363 66.1011 118.789 65.7171 119.152C65.3331 119.504 64.9011 119.776 64.4211 119.968C63.9518 120.16 63.4665 120.256 62.9651 120.256ZM62.9331 118.368C63.2851 118.368 63.6211 118.283 63.9411 118.112C64.2718 117.931 64.5385 117.675 64.7411 117.344C64.9545 117.013 65.0611 116.624 65.0611 116.176C65.0611 115.76 64.9651 115.392 64.7731 115.072C64.5918 114.752 64.3411 114.501 64.0211 114.32C63.7011 114.139 63.3331 114.048 62.9171 114.048C62.5225 114.048 62.1651 114.144 61.8451 114.336C61.5251 114.517 61.2691 114.773 61.0771 115.104C60.8958 115.424 60.8051 115.787 60.8051 116.192C60.8051 116.64 60.9065 117.029 61.1091 117.36C61.3118 117.68 61.5731 117.931 61.8931 118.112C62.2238 118.283 62.5705 118.368 62.9331 118.368ZM69.1506 120.144C68.8626 120.144 68.6493 120.101 68.5106 120.016C68.3826 119.931 68.3026 119.813 68.2706 119.664C68.2386 119.515 68.2226 119.355 68.2226 119.184V113.2C68.2226 113.029 68.2386 112.875 68.2706 112.736C68.3026 112.597 68.388 112.485 68.5266 112.4C68.6653 112.315 68.884 112.272 69.1826 112.272C69.492 112.272 69.716 112.336 69.8546 112.464C70.004 112.592 70.0786 112.795 70.0786 113.072L69.9346 113.52C69.988 113.403 70.0786 113.275 70.2066 113.136C70.3346 112.997 70.4893 112.859 70.6706 112.72C70.8626 112.581 71.076 112.469 71.3106 112.384C71.5453 112.299 71.7906 112.256 72.0466 112.256C72.3986 112.256 72.7186 112.315 73.0066 112.432C73.3053 112.549 73.5666 112.72 73.7906 112.944C74.0253 113.168 74.228 113.44 74.3986 113.76C74.58 113.483 74.7826 113.232 75.0066 113.008C75.2306 112.773 75.492 112.592 75.7906 112.464C76.0893 112.325 76.4253 112.256 76.7986 112.256C77.4173 112.256 77.9346 112.411 78.3506 112.72C78.7773 113.029 79.0973 113.472 79.3106 114.048C79.5346 114.613 79.6466 115.291 79.6466 116.08V119.184C79.6466 119.365 79.6253 119.531 79.5826 119.68C79.5506 119.819 79.4653 119.931 79.3266 120.016C79.1986 120.101 78.9853 120.144 78.6866 120.144C78.388 120.144 78.1693 120.096 78.0306 120C77.892 119.915 77.8066 119.803 77.7746 119.664C77.7426 119.515 77.7266 119.349 77.7266 119.168V116.064C77.7266 115.669 77.6786 115.328 77.5826 115.04C77.4866 114.752 77.3426 114.528 77.1506 114.368C76.9693 114.208 76.7293 114.128 76.4306 114.128C76.1106 114.128 75.8333 114.208 75.5986 114.368C75.3746 114.517 75.1986 114.736 75.0706 115.024C74.9426 115.312 74.8786 115.664 74.8786 116.08V119.2C74.8786 119.381 74.852 119.552 74.7986 119.712C74.7453 119.861 74.6386 119.973 74.4786 120.048C74.3293 120.133 74.1106 120.165 73.8226 120.144C73.556 120.133 73.3586 120.08 73.2306 119.984C73.1133 119.888 73.0386 119.771 73.0066 119.632C72.9853 119.483 72.9746 119.328 72.9746 119.168V116.064C72.9746 115.669 72.9266 115.328 72.8306 115.04C72.7346 114.741 72.5906 114.517 72.3986 114.368C72.2173 114.208 71.972 114.128 71.6626 114.128C71.332 114.128 71.0493 114.213 70.8146 114.384C70.5906 114.555 70.42 114.784 70.3026 115.072C70.1853 115.36 70.1266 115.691 70.1266 116.064V119.2C70.1266 119.371 70.1053 119.531 70.0626 119.68C70.0306 119.829 69.9453 119.941 69.8066 120.016C69.6786 120.101 69.46 120.144 69.1506 120.144ZM84.9339 120.256C84.4219 120.256 83.9205 120.16 83.4299 119.968C82.9499 119.765 82.5125 119.483 82.1179 119.12C81.7339 118.757 81.4245 118.331 81.1899 117.84C80.9659 117.349 80.8539 116.811 80.8539 116.224C80.8539 115.659 80.9605 115.131 81.1739 114.64C81.3872 114.149 81.6805 113.717 82.0539 113.344C82.4272 112.971 82.8539 112.683 83.3339 112.48C83.8245 112.267 84.3472 112.16 84.9019 112.16C85.6485 112.16 86.3259 112.341 86.9339 112.704C87.5419 113.056 88.0272 113.536 88.3899 114.144C88.7525 114.752 88.9339 115.44 88.9339 116.208C88.9339 116.816 88.8219 117.371 88.5979 117.872C88.3739 118.363 88.0699 118.789 87.6859 119.152C87.3019 119.504 86.8699 119.776 86.3899 119.968C85.9205 120.16 85.4352 120.256 84.9339 120.256ZM84.9019 118.368C85.2539 118.368 85.5899 118.283 85.9099 118.112C86.2405 117.931 86.5072 117.675 86.7099 117.344C86.9232 117.013 87.0299 116.624 87.0299 116.176C87.0299 115.76 86.9339 115.392 86.7419 115.072C86.5605 114.752 86.3099 114.501 85.9899 114.32C85.6699 114.139 85.3019 114.048 84.8859 114.048C84.4912 114.048 84.1339 114.144 83.8139 114.336C83.4939 114.517 83.2379 114.773 83.0459 115.104C82.8645 115.424 82.7739 115.787 82.7739 116.192C82.7739 116.64 82.8752 117.029 83.0779 117.36C83.2805 117.68 83.5419 117.931 83.8619 118.112C84.1925 118.283 84.5392 118.368 84.9019 118.368ZM91.1354 120.16C90.8474 120.16 90.634 120.112 90.4954 120.016C90.3674 119.931 90.2874 119.813 90.2554 119.664C90.2234 119.515 90.2074 119.349 90.2074 119.168V113.232C90.2074 113.04 90.2234 112.875 90.2554 112.736C90.2874 112.587 90.3674 112.475 90.4954 112.4C90.634 112.315 90.8527 112.272 91.1514 112.272C91.4394 112.272 91.6474 112.309 91.7754 112.384C91.914 112.459 91.9994 112.555 92.0314 112.672C92.074 112.779 92.0954 112.885 92.0954 112.992L91.9674 113.28C92.0207 113.195 92.0954 113.093 92.1914 112.976C92.2874 112.848 92.4154 112.725 92.5754 112.608C92.7354 112.48 92.9274 112.379 93.1514 112.304C93.3754 112.219 93.642 112.176 93.9514 112.176C94.0794 112.176 94.2127 112.192 94.3514 112.224C94.5007 112.245 94.6447 112.283 94.7834 112.336C94.9327 112.379 95.066 112.437 95.1834 112.512C95.3007 112.587 95.3914 112.677 95.4554 112.784C95.5194 112.88 95.5514 112.992 95.5514 113.12C95.5514 113.461 95.466 113.749 95.2954 113.984C95.1247 114.219 94.922 114.336 94.6874 114.336C94.5274 114.336 94.41 114.32 94.3354 114.288C94.2607 114.256 94.1967 114.219 94.1434 114.176C94.1007 114.133 94.0314 114.096 93.9354 114.064C93.85 114.032 93.7114 114.016 93.5194 114.016C93.3594 114.016 93.194 114.043 93.0234 114.096C92.8634 114.149 92.714 114.229 92.5754 114.336C92.4367 114.443 92.3247 114.581 92.2394 114.752C92.154 114.912 92.1114 115.099 92.1114 115.312V119.2C92.1114 119.381 92.0954 119.547 92.0634 119.696C92.0314 119.835 91.946 119.947 91.8074 120.032C91.6687 120.117 91.4447 120.16 91.1354 120.16ZM97.776 120.16C97.488 120.16 97.2747 120.112 97.136 120.016C97.008 119.931 96.928 119.813 96.896 119.664C96.864 119.515 96.848 119.349 96.848 119.168V113.232C96.848 113.04 96.864 112.875 96.896 112.736C96.928 112.587 97.008 112.475 97.136 112.4C97.2747 112.315 97.4933 112.272 97.792 112.272C98.08 112.272 98.288 112.309 98.416 112.384C98.5547 112.459 98.64 112.555 98.672 112.672C98.7147 112.779 98.736 112.885 98.736 112.992L98.608 113.28C98.6613 113.195 98.736 113.093 98.832 112.976C98.928 112.848 99.056 112.725 99.216 112.608C99.376 112.48 99.568 112.379 99.792 112.304C100.016 112.219 100.283 112.176 100.592 112.176C100.72 112.176 100.853 112.192 100.992 112.224C101.141 112.245 101.285 112.283 101.424 112.336C101.573 112.379 101.707 112.437 101.824 112.512C101.941 112.587 102.032 112.677 102.096 112.784C102.16 112.88 102.192 112.992 102.192 113.12C102.192 113.461 102.107 113.749 101.936 113.984C101.765 114.219 101.563 114.336 101.328 114.336C101.168 114.336 101.051 114.32 100.976 114.288C100.901 114.256 100.837 114.219 100.784 114.176C100.741 114.133 100.672 114.096 100.576 114.064C100.491 114.032 100.352 114.016 100.16 114.016C100 114.016 99.8347 114.043 99.664 114.096C99.504 114.149 99.3547 114.229 99.216 114.336C99.0773 114.443 98.9653 114.581 98.88 114.752C98.7947 114.912 98.752 115.099 98.752 115.312V119.2C98.752 119.381 98.736 119.547 98.704 119.696C98.672 119.835 98.5867 119.947 98.448 120.032C98.3093 120.117 98.0853 120.16 97.776 120.16ZM106.84 120.256C106.328 120.256 105.827 120.16 105.336 119.968C104.856 119.765 104.419 119.483 104.024 119.12C103.64 118.757 103.331 118.331 103.096 117.84C102.872 117.349 102.76 116.811 102.76 116.224C102.76 115.659 102.867 115.131 103.08 114.64C103.293 114.149 103.587 113.717 103.96 113.344C104.333 112.971 104.76 112.683 105.24 112.48C105.731 112.267 106.253 112.16 106.808 112.16C107.555 112.16 108.232 112.341 108.84 112.704C109.448 113.056 109.933 113.536 110.296 114.144C110.659 114.752 110.84 115.44 110.84 116.208C110.84 116.816 110.728 117.371 110.504 117.872C110.28 118.363 109.976 118.789 109.592 119.152C109.208 119.504 108.776 119.776 108.296 119.968C107.827 120.16 107.341 120.256 106.84 120.256ZM106.808 118.368C107.16 118.368 107.496 118.283 107.816 118.112C108.147 117.931 108.413 117.675 108.616 117.344C108.829 117.013 108.936 116.624 108.936 116.176C108.936 115.76 108.84 115.392 108.648 115.072C108.467 114.752 108.216 114.501 107.896 114.32C107.576 114.139 107.208 114.048 106.792 114.048C106.397 114.048 106.04 114.144 105.72 114.336C105.4 114.517 105.144 114.773 104.952 115.104C104.771 115.424 104.68 115.787 104.68 116.192C104.68 116.64 104.781 117.029 104.984 117.36C105.187 117.68 105.448 117.931 105.768 118.112C106.099 118.283 106.445 118.368 106.808 118.368ZM114.665 120.144C114.452 120.144 114.281 120.101 114.153 120.016C114.036 119.941 113.945 119.845 113.881 119.728C113.828 119.611 113.78 119.504 113.737 119.408L111.385 113.456C111.321 113.253 111.289 113.083 111.289 112.944C111.3 112.805 111.353 112.688 111.449 112.592C111.556 112.485 111.71 112.395 111.913 112.32C112.254 112.181 112.521 112.144 112.713 112.208C112.916 112.272 113.065 112.453 113.161 112.752L114.681 116.784L116.057 112.928C116.089 112.832 116.137 112.731 116.201 112.624C116.265 112.517 116.356 112.427 116.473 112.352C116.601 112.267 116.772 112.224 116.985 112.224C117.209 112.224 117.385 112.267 117.513 112.352C117.641 112.427 117.737 112.517 117.801 112.624C117.876 112.731 117.924 112.832 117.945 112.928L119.321 116.816L120.777 112.896C120.905 112.565 121.065 112.347 121.257 112.24C121.449 112.133 121.71 112.144 122.041 112.272C122.34 112.4 122.542 112.56 122.649 112.752C122.756 112.933 122.745 113.173 122.617 113.472L120.249 119.408C120.206 119.515 120.153 119.627 120.089 119.744C120.036 119.851 119.945 119.941 119.817 120.016C119.7 120.101 119.54 120.144 119.337 120.144C119.124 120.144 118.953 120.107 118.825 120.032C118.708 119.968 118.617 119.877 118.553 119.76C118.489 119.643 118.436 119.52 118.393 119.392L117.001 115.44L115.609 119.392C115.545 119.541 115.486 119.675 115.433 119.792C115.38 119.909 115.294 119.995 115.177 120.048C115.06 120.112 114.889 120.144 114.665 120.144Z" fill="#3A055E"/>
<mask id="path-2-inside-1_21_23" fill="white">
<rect x="21" y="15" width="60" height="60" rx="2"/>
</mask>
<rect x="21" y="15" width="60" height="60" rx="2" stroke="#3A055E" stroke-width="12" mask="url(#path-2-inside-1_21_23)"/>
<mask id="path-3-inside-2_21_23" fill="white">
<path d="M47 43C47 41.8954 47.8954 41 49 41H105C106.105 41 107 41.8954 107 43V99C107 100.105 106.105 101 105 101H49C47.8954 101 47 100.105 47 99V43Z"/>
</mask>
<path d="M47 43C47 41.8954 47.8954 41 49 41H105C106.105 41 107 41.8954 107 43V99C107 100.105 106.105 101 105 101H49C47.8954 101 47 100.105 47 99V43Z" stroke="#C878FF" stroke-width="12" mask="url(#path-3-inside-2_21_23)"/>
<rect x="75" y="41" width="6" height="6" fill="#3A055E"/>
<path d="M53 47H75L62 60L53 69V47Z" fill="#C878FF"/>
<path d="M75 69H53L66 56L75 47V69Z" fill="#3A055E"/>
</svg>
