<svg width="256" height="256" viewBox="0 0 256 256" fill="none" xmlns="http://www.w3.org/2000/svg">
<rect width="256" height="256" fill="white"/>
<path d="M11.52 242.288C10.944 242.288 10.5173 242.203 10.24 242.032C9.984 241.861 9.824 241.627 9.76 241.328C9.696 241.029 9.664 240.709 9.664 240.368V228.4C9.664 228.059 9.696 227.749 9.76 227.472C9.824 227.195 9.99467 226.971 10.272 226.8C10.5493 226.629 10.9867 226.544 11.584 226.544C12.2027 226.544 12.6507 226.672 12.928 226.928C13.2267 227.184 13.376 227.589 13.376 228.144L13.088 229.04C13.1947 228.805 13.376 228.549 13.632 228.272C13.888 227.995 14.1973 227.717 14.56 227.44C14.944 227.163 15.3707 226.939 15.84 226.768C16.3093 226.597 16.8 226.512 17.312 226.512C18.016 226.512 18.656 226.629 19.232 226.864C19.8293 227.099 20.352 227.44 20.8 227.888C21.2693 228.336 21.6747 228.88 22.016 229.52C22.3787 228.965 22.784 228.464 23.232 228.016C23.68 227.547 24.2027 227.184 24.8 226.928C25.3973 226.651 26.0693 226.512 26.816 226.512C28.0533 226.512 29.088 226.821 29.92 227.44C30.7733 228.059 31.4133 228.944 31.84 230.096C32.288 231.227 32.512 232.581 32.512 234.16V240.368C32.512 240.731 32.4693 241.061 32.384 241.36C32.32 241.637 32.1493 241.861 31.872 242.032C31.616 242.203 31.1893 242.288 30.592 242.288C29.9947 242.288 29.5573 242.192 29.28 242C29.0027 241.829 28.832 241.605 28.768 241.328C28.704 241.029 28.672 240.699 28.672 240.336V234.128C28.672 233.339 28.576 232.656 28.384 232.08C28.192 231.504 27.904 231.056 27.52 230.736C27.1573 230.416 26.6773 230.256 26.08 230.256C25.44 230.256 24.8853 230.416 24.416 230.736C23.968 231.035 23.616 231.472 23.36 232.048C23.104 232.624 22.976 233.328 22.976 234.16V240.4C22.976 240.763 22.9227 241.104 22.816 241.424C22.7093 241.723 22.496 241.947 22.176 242.096C21.8773 242.267 21.44 242.331 20.864 242.288C20.3307 242.267 19.936 242.16 19.68 241.968C19.4453 241.776 19.296 241.541 19.232 241.264C19.1893 240.965 19.168 240.656 19.168 240.336V234.128C19.168 233.339 19.072 232.656 18.88 232.08C18.688 231.483 18.4 231.035 18.016 230.736C17.6533 230.416 17.1627 230.256 16.544 230.256C15.8827 230.256 15.3173 230.427 14.848 230.768C14.4 231.109 14.0587 231.568 13.824 232.144C13.5893 232.72 13.472 233.381 13.472 234.128V240.4C13.472 240.741 13.4293 241.061 13.344 241.36C13.28 241.659 13.1093 241.883 12.832 242.032C12.576 242.203 12.1387 242.288 11.52 242.288ZM48.8465 242.256C48.2278 242.256 47.7692 242.139 47.4705 241.904C47.1718 241.669 47.0225 241.349 47.0225 240.944L47.2465 239.888C47.0758 240.165 46.7878 240.496 46.3825 240.88C45.9772 241.243 45.4438 241.573 44.7825 241.872C44.1212 242.149 43.3212 242.288 42.3825 242.288C41.3798 242.288 40.4305 242.085 39.5345 241.68C38.6598 241.253 37.8812 240.677 37.1985 239.952C36.5372 239.205 36.0038 238.363 35.5985 237.424C35.2145 236.464 35.0225 235.44 35.0225 234.352C35.0225 233.307 35.2145 232.325 35.5985 231.408C36.0038 230.469 36.5478 229.637 37.2305 228.912C37.9132 228.187 38.6918 227.621 39.5665 227.216C40.4625 226.789 41.4012 226.576 42.3825 226.576C43.2572 226.576 43.9932 226.693 44.5905 226.928C45.2092 227.163 45.7318 227.461 46.1585 227.824C46.5852 228.165 46.9372 228.528 47.2145 228.912L47.0225 227.984C47.0225 227.515 47.1718 227.163 47.4705 226.928C47.7692 226.672 48.2385 226.544 48.8785 226.544C49.4758 226.544 49.9025 226.64 50.1585 226.832C50.4145 227.003 50.5745 227.248 50.6385 227.568C50.7025 227.867 50.7345 228.208 50.7345 228.592V240.304C50.7345 240.667 50.7025 240.997 50.6385 241.296C50.5745 241.595 50.4038 241.829 50.1265 242C49.8705 242.171 49.4438 242.256 48.8465 242.256ZM42.9585 238.544C43.6838 238.544 44.3345 238.363 44.9105 238C45.4865 237.637 45.9452 237.147 46.2865 236.528C46.6492 235.888 46.8305 235.184 46.8305 234.416C46.8305 233.584 46.6492 232.859 46.2865 232.24C45.9238 231.621 45.4438 231.141 44.8465 230.8C44.2705 230.437 43.6198 230.256 42.8945 230.256C42.1052 230.256 41.4012 230.448 40.7825 230.832C40.1638 231.195 39.6732 231.696 39.3105 232.336C38.9692 232.955 38.7985 233.659 38.7985 234.448C38.7985 235.216 38.9798 235.909 39.3425 236.528C39.7052 237.147 40.1958 237.637 40.8145 238C41.4545 238.363 42.1692 238.544 42.9585 238.544ZM57.2883 248.624C56.6056 248.325 56.2109 247.984 56.1043 247.6C55.9976 247.237 56.0936 246.747 56.3923 246.128L64.6483 227.632C64.9469 226.949 65.2669 226.544 65.6083 226.416C65.9496 226.267 66.4723 226.341 67.1763 226.64C67.8376 226.939 68.2216 227.269 68.3283 227.632C68.4563 227.995 68.3816 228.485 68.1042 229.104L59.7843 247.696C59.5069 248.379 59.1976 248.773 58.8563 248.88C58.5149 249.008 57.9923 248.923 57.2883 248.624ZM60.2643 240.784L52.8723 229.424C52.4883 228.848 52.3283 228.368 52.3923 227.984C52.4776 227.6 52.8189 227.227 53.4163 226.864C54.0776 226.459 54.5896 226.299 54.9523 226.384C55.3363 226.469 55.7203 226.811 56.1043 227.408L61.9603 236.528L60.2643 240.784ZM78.9193 242.288C77.8739 242.288 76.9353 242.085 76.1033 241.68C75.2926 241.253 74.5993 240.677 74.0233 239.952C73.4686 239.227 73.0419 238.395 72.7433 237.456C72.4659 236.496 72.3273 235.472 72.3273 234.384C72.3486 233.296 72.5086 232.283 72.8073 231.344C73.1059 230.384 73.5326 229.552 74.0873 228.848C74.6633 228.123 75.3566 227.557 76.1673 227.152C76.9779 226.747 77.8953 226.544 78.9193 226.544C79.9006 226.544 80.8179 226.747 81.6713 227.152C82.5459 227.557 83.3139 228.123 83.9753 228.848C84.6579 229.552 85.1913 230.384 85.5753 231.344C85.9593 232.283 86.1513 233.285 86.1513 234.352C86.1513 235.461 85.9593 236.507 85.5753 237.488C85.1913 238.448 84.6686 239.291 84.0073 240.016C83.3459 240.72 82.5779 241.275 81.7033 241.68C80.8286 242.085 79.9006 242.288 78.9193 242.288ZM78.4073 238.544C79.1539 238.544 79.8259 238.373 80.4233 238.032C81.0206 237.669 81.4899 237.179 81.8313 236.56C82.1939 235.941 82.3753 235.237 82.3753 234.448C82.3753 233.637 82.1939 232.923 81.8313 232.304C81.4899 231.664 81.0206 231.173 80.4233 230.832C79.8259 230.469 79.1539 230.288 78.4073 230.288C77.6819 230.288 77.0206 230.469 76.4233 230.832C75.8259 231.195 75.3459 231.685 74.9833 232.304C74.6419 232.923 74.4713 233.637 74.4713 234.448C74.4713 235.237 74.6419 235.941 74.9833 236.56C75.3459 237.179 75.8259 237.669 76.4233 238.032C77.0206 238.373 77.6819 238.544 78.4073 238.544ZM72.4873 242.32C71.9113 242.32 71.4846 242.224 71.2073 242.032C70.9299 241.861 70.7593 241.637 70.6953 241.36C70.6313 241.061 70.5993 240.731 70.5993 240.368V221.296C70.5993 220.933 70.6313 220.613 70.6953 220.336C70.7593 220.037 70.9299 219.803 71.2073 219.632C71.4846 219.461 71.9113 219.376 72.4873 219.376C73.0846 219.376 73.5113 219.461 73.7673 219.632C74.0233 219.803 74.1833 220.037 74.2473 220.336C74.3113 220.635 74.3433 220.955 74.3433 221.296V241.008C74.2579 241.477 74.0766 241.808 73.7993 242C73.5433 242.213 73.1059 242.32 72.4873 242.32ZM96.655 242.512C95.2683 242.512 94.0523 242.288 93.007 241.84C91.983 241.392 91.119 240.784 90.415 240.016C89.7323 239.227 89.2097 238.352 88.847 237.392C88.5057 236.411 88.335 235.397 88.335 234.352C88.335 232.816 88.687 231.451 89.391 230.256C90.095 229.061 91.0657 228.123 92.303 227.44C93.5617 226.757 95.0017 226.416 96.623 226.416C97.775 226.416 98.7883 226.597 99.663 226.96C100.538 227.323 101.263 227.803 101.839 228.4C102.436 228.976 102.884 229.616 103.183 230.32C103.503 231.024 103.663 231.707 103.663 232.368C103.663 233.499 103.386 234.32 102.831 234.832C102.298 235.344 101.626 235.6 100.815 235.6H92.367C92.3883 236.325 92.6123 236.955 93.039 237.488C93.487 238.021 94.0417 238.437 94.703 238.736C95.3857 239.013 96.079 239.152 96.783 239.152C97.3163 239.152 97.7857 239.12 98.191 239.056C98.6177 238.992 98.9803 238.917 99.279 238.832C99.5777 238.725 99.8337 238.619 100.047 238.512C100.282 238.405 100.495 238.309 100.687 238.224C100.879 238.139 101.06 238.085 101.231 238.064C101.466 238.043 101.7 238.096 101.935 238.224C102.17 238.352 102.362 238.576 102.511 238.896C102.639 239.109 102.724 239.312 102.767 239.504C102.831 239.675 102.863 239.845 102.863 240.016C102.863 240.443 102.607 240.848 102.095 241.232C101.583 241.595 100.858 241.893 99.919 242.128C99.0017 242.384 97.9137 242.512 96.655 242.512ZM92.367 233.328H98.927C99.2897 233.328 99.567 233.275 99.759 233.168C99.951 233.04 100.047 232.784 100.047 232.4C100.047 231.909 99.8977 231.472 99.599 231.088C99.3003 230.683 98.895 230.373 98.383 230.16C97.871 229.925 97.2737 229.808 96.591 229.808C95.8017 229.808 95.087 229.968 94.447 230.288C93.807 230.587 93.295 231.003 92.911 231.536C92.5483 232.069 92.367 232.667 92.367 233.328ZM113.753 242.32C112.707 242.32 111.811 242.213 111.065 242C110.318 241.787 109.71 241.456 109.241 241.008C108.771 240.56 108.419 239.984 108.185 239.28C107.971 238.555 107.865 237.701 107.865 236.72V223.152C107.865 222.768 107.897 222.437 107.961 222.16C108.046 221.883 108.217 221.669 108.473 221.52C108.75 221.349 109.177 221.264 109.753 221.264C110.35 221.264 110.777 221.349 111.033 221.52C111.31 221.691 111.481 221.925 111.545 222.224C111.63 222.501 111.673 222.811 111.673 223.152V236.592C111.673 237.04 111.705 237.403 111.769 237.68C111.854 237.957 111.971 238.171 112.121 238.32C112.291 238.448 112.505 238.544 112.76 238.608C113.038 238.651 113.369 238.672 113.753 238.672C114.158 238.672 114.499 238.704 114.777 238.768C115.075 238.832 115.299 238.992 115.449 239.248C115.598 239.483 115.673 239.877 115.673 240.432C115.673 241.029 115.577 241.467 115.385 241.744C115.214 242 114.979 242.16 114.681 242.224C114.403 242.288 114.094 242.32 113.753 242.32ZM106.553 226.864L109.849 226.896L114.265 226.768C114.627 226.768 114.947 226.811 115.225 226.896C115.523 226.96 115.758 227.131 115.929 227.408C116.099 227.664 116.185 228.091 116.185 228.688C116.185 229.243 116.099 229.659 115.929 229.936C115.758 230.213 115.534 230.395 115.257 230.48C114.979 230.544 114.659 230.576 114.297 230.576L110.009 230.512L106.457 230.544C105.923 230.523 105.55 230.373 105.337 230.096C105.145 229.797 105.049 229.317 105.049 228.656C105.049 228.037 105.166 227.589 105.401 227.312C105.657 227.013 106.041 226.864 106.553 226.864ZM125.93 242.512C124.906 242.512 123.904 242.32 122.922 241.936C121.962 241.531 121.088 240.965 120.298 240.24C119.53 239.515 118.912 238.661 118.442 237.68C117.994 236.699 117.77 235.621 117.77 234.448C117.77 233.317 117.984 232.261 118.41 231.28C118.837 230.299 119.424 229.435 120.17 228.688C120.917 227.941 121.77 227.365 122.73 226.96C123.712 226.533 124.757 226.32 125.866 226.32C127.36 226.32 128.714 226.683 129.93 227.408C131.146 228.112 132.117 229.072 132.842 230.288C133.568 231.504 133.93 232.88 133.93 234.416C133.93 235.632 133.706 236.741 133.258 237.744C132.81 238.725 132.202 239.579 131.434 240.304C130.666 241.008 129.802 241.552 128.842 241.936C127.904 242.32 126.933 242.512 125.93 242.512ZM125.866 238.736C126.57 238.736 127.242 238.565 127.882 238.224C128.544 237.861 129.077 237.349 129.482 236.688C129.909 236.027 130.122 235.248 130.122 234.352C130.122 233.52 129.93 232.784 129.546 232.144C129.184 231.504 128.682 231.003 128.042 230.64C127.402 230.277 126.666 230.096 125.834 230.096C125.045 230.096 124.33 230.288 123.69 230.672C123.05 231.035 122.538 231.547 122.154 232.208C121.792 232.848 121.61 233.573 121.61 234.384C121.61 235.28 121.813 236.059 122.218 236.72C122.624 237.36 123.146 237.861 123.786 238.224C124.448 238.565 125.141 238.736 125.866 238.736ZM138.301 242.288C137.725 242.288 137.299 242.203 137.021 242.032C136.765 241.861 136.605 241.627 136.541 241.328C136.477 241.029 136.445 240.709 136.445 240.368V228.4C136.445 228.059 136.477 227.749 136.541 227.472C136.605 227.195 136.776 226.971 137.053 226.8C137.331 226.629 137.768 226.544 138.365 226.544C138.984 226.544 139.432 226.672 139.709 226.928C140.008 227.184 140.157 227.589 140.157 228.144L139.869 229.04C139.976 228.805 140.157 228.549 140.413 228.272C140.669 227.995 140.979 227.717 141.341 227.44C141.725 227.163 142.152 226.939 142.621 226.768C143.091 226.597 143.581 226.512 144.093 226.512C144.797 226.512 145.437 226.629 146.013 226.864C146.611 227.099 147.133 227.44 147.581 227.888C148.051 228.336 148.456 228.88 148.797 229.52C149.16 228.965 149.565 228.464 150.013 228.016C150.461 227.547 150.984 227.184 151.581 226.928C152.179 226.651 152.851 226.512 153.597 226.512C154.835 226.512 155.869 226.821 156.701 227.44C157.555 228.059 158.195 228.944 158.621 230.096C159.069 231.227 159.293 232.581 159.293 234.16V240.368C159.293 240.731 159.251 241.061 159.165 241.36C159.101 241.637 158.931 241.861 158.653 242.032C158.397 242.203 157.971 242.288 157.373 242.288C156.776 242.288 156.339 242.192 156.061 242C155.784 241.829 155.613 241.605 155.549 241.328C155.485 241.029 155.453 240.699 155.453 240.336V234.128C155.453 233.339 155.357 232.656 155.165 232.08C154.973 231.504 154.685 231.056 154.301 230.736C153.939 230.416 153.459 230.256 152.861 230.256C152.221 230.256 151.667 230.416 151.197 230.736C150.749 231.035 150.397 231.472 150.141 232.048C149.885 232.624 149.757 233.328 149.757 234.16V240.4C149.757 240.763 149.704 241.104 149.597 241.424C149.491 241.723 149.277 241.947 148.957 242.096C148.659 242.267 148.221 242.331 147.645 242.288C147.112 242.267 146.717 242.16 146.461 241.968C146.227 241.776 146.077 241.541 146.013 241.264C145.971 240.965 145.949 240.656 145.949 240.336V234.128C145.949 233.339 145.853 232.656 145.661 232.08C145.469 231.483 145.181 231.035 144.797 230.736C144.435 230.416 143.944 230.256 143.325 230.256C142.664 230.256 142.099 230.427 141.629 230.768C141.181 231.109 140.84 231.568 140.605 232.144C140.371 232.72 140.253 233.381 140.253 234.128V240.4C140.253 240.741 140.211 241.061 140.125 241.36C140.061 241.659 139.891 241.883 139.613 242.032C139.357 242.203 138.92 242.288 138.301 242.288ZM169.868 242.512C168.844 242.512 167.841 242.32 166.86 241.936C165.9 241.531 165.025 240.965 164.236 240.24C163.468 239.515 162.849 238.661 162.38 237.68C161.932 236.699 161.708 235.621 161.708 234.448C161.708 233.317 161.921 232.261 162.348 231.28C162.774 230.299 163.361 229.435 164.108 228.688C164.854 227.941 165.708 227.365 166.668 226.96C167.649 226.533 168.694 226.32 169.804 226.32C171.297 226.32 172.652 226.683 173.868 227.408C175.084 228.112 176.054 229.072 176.78 230.288C177.505 231.504 177.868 232.88 177.868 234.416C177.868 235.632 177.644 236.741 177.196 237.744C176.748 238.725 176.14 239.579 175.372 240.304C174.604 241.008 173.74 241.552 172.78 241.936C171.841 242.32 170.87 242.512 169.868 242.512ZM169.804 238.736C170.508 238.736 171.18 238.565 171.82 238.224C172.481 237.861 173.014 237.349 173.42 236.688C173.846 236.027 174.06 235.248 174.06 234.352C174.06 233.52 173.868 232.784 173.484 232.144C173.121 231.504 172.62 231.003 171.98 230.64C171.34 230.277 170.604 230.096 169.772 230.096C168.982 230.096 168.268 230.288 167.628 230.672C166.988 231.035 166.476 231.547 166.092 232.208C165.729 232.848 165.548 233.573 165.548 234.384C165.548 235.28 165.75 236.059 166.156 236.72C166.561 237.36 167.084 237.861 167.724 238.224C168.385 238.565 169.078 238.736 169.804 238.736ZM182.271 242.32C181.695 242.32 181.268 242.224 180.991 242.032C180.735 241.861 180.575 241.627 180.511 241.328C180.447 241.029 180.415 240.699 180.415 240.336V228.464C180.415 228.08 180.447 227.749 180.511 227.472C180.575 227.173 180.735 226.949 180.991 226.8C181.268 226.629 181.705 226.544 182.303 226.544C182.879 226.544 183.295 226.619 183.551 226.768C183.828 226.917 183.999 227.109 184.063 227.344C184.148 227.557 184.191 227.771 184.191 227.984L183.935 228.56C184.041 228.389 184.191 228.187 184.383 227.952C184.575 227.696 184.831 227.451 185.151 227.216C185.471 226.96 185.855 226.757 186.303 226.608C186.751 226.437 187.284 226.352 187.903 226.352C188.159 226.352 188.425 226.384 188.703 226.448C189.001 226.491 189.289 226.565 189.567 226.672C189.865 226.757 190.132 226.875 190.367 227.024C190.601 227.173 190.783 227.355 190.911 227.568C191.039 227.76 191.103 227.984 191.103 228.24C191.103 228.923 190.932 229.499 190.591 229.968C190.249 230.437 189.844 230.672 189.375 230.672C189.055 230.672 188.82 230.64 188.671 230.576C188.521 230.512 188.393 230.437 188.287 230.352C188.201 230.267 188.063 230.192 187.871 230.128C187.7 230.064 187.423 230.032 187.039 230.032C186.719 230.032 186.388 230.085 186.047 230.192C185.727 230.299 185.428 230.459 185.151 230.672C184.873 230.885 184.649 231.163 184.479 231.504C184.308 231.824 184.223 232.197 184.223 232.624V240.4C184.223 240.763 184.191 241.093 184.127 241.392C184.063 241.669 183.892 241.893 183.615 242.064C183.337 242.235 182.889 242.32 182.271 242.32ZM195.552 242.32C194.976 242.32 194.549 242.224 194.272 242.032C194.016 241.861 193.856 241.627 193.792 241.328C193.728 241.029 193.696 240.699 193.696 240.336V228.464C193.696 228.08 193.728 227.749 193.792 227.472C193.856 227.173 194.016 226.949 194.272 226.8C194.549 226.629 194.987 226.544 195.584 226.544C196.16 226.544 196.576 226.619 196.832 226.768C197.109 226.917 197.28 227.109 197.344 227.344C197.429 227.557 197.472 227.771 197.472 227.984L197.216 228.56C197.323 228.389 197.472 228.187 197.664 227.952C197.856 227.696 198.112 227.451 198.432 227.216C198.752 226.96 199.136 226.757 199.584 226.608C200.032 226.437 200.565 226.352 201.184 226.352C201.44 226.352 201.707 226.384 201.984 226.448C202.283 226.491 202.571 226.565 202.848 226.672C203.147 226.757 203.413 226.875 203.648 227.024C203.883 227.173 204.064 227.355 204.192 227.568C204.32 227.76 204.384 227.984 204.384 228.24C204.384 228.923 204.213 229.499 203.872 229.968C203.531 230.437 203.125 230.672 202.656 230.672C202.336 230.672 202.101 230.64 201.952 230.576C201.803 230.512 201.675 230.437 201.568 230.352C201.483 230.267 201.344 230.192 201.152 230.128C200.981 230.064 200.704 230.032 200.32 230.032C200 230.032 199.669 230.085 199.328 230.192C199.008 230.299 198.709 230.459 198.432 230.672C198.155 230.885 197.931 231.163 197.76 231.504C197.589 231.824 197.504 232.197 197.504 232.624V240.4C197.504 240.763 197.472 241.093 197.408 241.392C197.344 241.669 197.173 241.893 196.896 242.064C196.619 242.235 196.171 242.32 195.552 242.32ZM213.68 242.512C212.656 242.512 211.654 242.32 210.672 241.936C209.712 241.531 208.838 240.965 208.048 240.24C207.28 239.515 206.662 238.661 206.192 237.68C205.744 236.699 205.52 235.621 205.52 234.448C205.52 233.317 205.734 232.261 206.16 231.28C206.587 230.299 207.174 229.435 207.92 228.688C208.667 227.941 209.52 227.365 210.48 226.96C211.462 226.533 212.507 226.32 213.616 226.32C215.11 226.32 216.464 226.683 217.68 227.408C218.896 228.112 219.867 229.072 220.592 230.288C221.318 231.504 221.68 232.88 221.68 234.416C221.68 235.632 221.456 236.741 221.008 237.744C220.56 238.725 219.952 239.579 219.184 240.304C218.416 241.008 217.552 241.552 216.592 241.936C215.654 242.32 214.683 242.512 213.68 242.512ZM213.616 238.736C214.32 238.736 214.992 238.565 215.632 238.224C216.294 237.861 216.827 237.349 217.232 236.688C217.659 236.027 217.872 235.248 217.872 234.352C217.872 233.52 217.68 232.784 217.296 232.144C216.934 231.504 216.432 231.003 215.792 230.64C215.152 230.277 214.416 230.096 213.584 230.096C212.795 230.096 212.08 230.288 211.44 230.672C210.8 231.035 210.288 231.547 209.904 232.208C209.542 232.848 209.36 233.573 209.36 234.384C209.36 235.28 209.563 236.059 209.968 236.72C210.374 237.36 210.896 237.861 211.536 238.224C212.198 238.565 212.891 238.736 213.616 238.736ZM229.33 242.288C228.904 242.288 228.562 242.203 228.306 242.032C228.072 241.883 227.89 241.691 227.762 241.456C227.656 241.221 227.56 241.008 227.474 240.816L222.77 228.912C222.642 228.507 222.578 228.165 222.578 227.888C222.6 227.611 222.706 227.376 222.898 227.184C223.112 226.971 223.421 226.789 223.826 226.64C224.509 226.363 225.042 226.288 225.426 226.416C225.832 226.544 226.13 226.907 226.322 227.504L229.362 235.568L232.114 227.856C232.178 227.664 232.274 227.461 232.402 227.248C232.53 227.035 232.712 226.853 232.946 226.704C233.202 226.533 233.544 226.448 233.97 226.448C234.418 226.448 234.77 226.533 235.026 226.704C235.282 226.853 235.474 227.035 235.602 227.248C235.752 227.461 235.848 227.664 235.89 227.856L238.642 235.632L241.554 227.792C241.81 227.131 242.13 226.693 242.514 226.48C242.898 226.267 243.421 226.288 244.082 226.544C244.68 226.8 245.085 227.12 245.298 227.504C245.512 227.867 245.49 228.347 245.234 228.944L240.498 240.816C240.413 241.029 240.306 241.253 240.178 241.488C240.072 241.701 239.89 241.883 239.634 242.032C239.4 242.203 239.08 242.288 238.674 242.288C238.248 242.288 237.906 242.213 237.65 242.064C237.416 241.936 237.234 241.755 237.106 241.52C236.978 241.285 236.872 241.04 236.786 240.784L234.002 232.88L231.218 240.784C231.09 241.083 230.973 241.349 230.866 241.584C230.76 241.819 230.589 241.989 230.354 242.096C230.12 242.224 229.778 242.288 229.33 242.288Z" fill="#3A055E"/>
<mask id="path-2-inside-1_23_50" fill="white">
<rect x="42" y="35" width="120" height="120" rx="8"/>
</mask>
<rect x="42" y="35" width="120" height="120" rx="8" stroke="#3A055E" stroke-width="24" mask="url(#path-2-inside-1_23_50)"/>
<mask id="path-3-inside-2_23_50" fill="white">
<rect x="94" y="87" width="120" height="120" rx="8"/>
</mask>
<rect x="94" y="87" width="120" height="120" rx="8" stroke="#C878FF" stroke-width="24" mask="url(#path-3-inside-2_23_50)"/>
<rect x="150" y="87" width="12" height="12" fill="#3A055E"/>
<path d="M106 99H150L124 125L106 143V99Z" fill="#C878FF"/>
<path d="M150 143H106L132 117L150 99V143Z" fill="#3A055E"/>
</svg>
