<svg width="512" height="512" viewBox="0 0 512 512" fill="none" xmlns="http://www.w3.org/2000/svg">
<rect width="512" height="512" fill="white"/>
<path d="M25.04 487.576C23.888 487.576 23.0347 487.405 22.48 487.064C21.968 486.723 21.648 486.253 21.52 485.656C21.392 485.059 21.328 484.419 21.328 483.736V459.8C21.328 459.117 21.392 458.499 21.52 457.944C21.648 457.389 21.9893 456.941 22.544 456.6C23.0987 456.259 23.9733 456.088 25.168 456.088C26.4053 456.088 27.3013 456.344 27.856 456.856C28.4533 457.368 28.752 458.179 28.752 459.288L28.176 461.08C28.3893 460.611 28.752 460.099 29.264 459.544C29.776 458.989 30.3947 458.435 31.12 457.88C31.888 457.325 32.7413 456.877 33.68 456.536C34.6187 456.195 35.6 456.024 36.624 456.024C38.032 456.024 39.312 456.259 40.464 456.728C41.6587 457.197 42.704 457.88 43.6 458.776C44.5387 459.672 45.3493 460.76 46.032 462.04C46.7573 460.931 47.568 459.928 48.464 459.032C49.36 458.093 50.4053 457.368 51.6 456.856C52.7947 456.301 54.1387 456.024 55.632 456.024C58.1067 456.024 60.176 456.643 61.84 457.88C63.5467 459.117 64.8267 460.888 65.68 463.192C66.576 465.453 67.024 468.163 67.024 471.32V483.736C67.024 484.461 66.9387 485.123 66.768 485.72C66.64 486.275 66.2987 486.723 65.744 487.064C65.232 487.405 64.3787 487.576 63.184 487.576C61.9893 487.576 61.1147 487.384 60.56 487C60.0053 486.659 59.664 486.211 59.536 485.656C59.408 485.059 59.344 484.397 59.344 483.672V471.256C59.344 469.677 59.152 468.312 58.768 467.16C58.384 466.008 57.808 465.112 57.04 464.472C56.3147 463.832 55.3547 463.512 54.16 463.512C52.88 463.512 51.7707 463.832 50.832 464.472C49.936 465.069 49.232 465.944 48.72 467.096C48.208 468.248 47.952 469.656 47.952 471.32V483.8C47.952 484.525 47.8453 485.208 47.632 485.848C47.4187 486.445 46.992 486.893 46.352 487.192C45.7547 487.533 44.88 487.661 43.728 487.576C42.6613 487.533 41.872 487.32 41.36 486.936C40.8907 486.552 40.592 486.083 40.464 485.528C40.3787 484.931 40.336 484.312 40.336 483.672V471.256C40.336 469.677 40.144 468.312 39.76 467.16C39.376 465.965 38.8 465.069 38.032 464.472C37.3067 463.832 36.3253 463.512 35.088 463.512C33.7653 463.512 32.6347 463.853 31.696 464.536C30.8 465.219 30.1173 466.136 29.648 467.288C29.1787 468.44 28.944 469.763 28.944 471.256V483.8C28.944 484.483 28.8587 485.123 28.688 485.72C28.56 486.317 28.2187 486.765 27.664 487.064C27.152 487.405 26.2773 487.576 25.04 487.576ZM99.693 487.512C98.4557 487.512 97.5383 487.277 96.941 486.808C96.3437 486.339 96.045 485.699 96.045 484.888L96.493 482.776C96.1517 483.331 95.5757 483.992 94.765 484.76C93.9543 485.485 92.8877 486.147 91.565 486.744C90.2423 487.299 88.6423 487.576 86.765 487.576C84.7597 487.576 82.861 487.171 81.069 486.36C79.3197 485.507 77.7623 484.355 76.397 482.904C75.0743 481.411 74.0077 479.725 73.197 477.848C72.429 475.928 72.045 473.88 72.045 471.704C72.045 469.613 72.429 467.651 73.197 465.816C74.0077 463.939 75.0957 462.275 76.461 460.824C77.8263 459.373 79.3837 458.243 81.133 457.432C82.925 456.579 84.8023 456.152 86.765 456.152C88.5143 456.152 89.9863 456.387 91.181 456.856C92.4183 457.325 93.4637 457.923 94.317 458.648C95.1703 459.331 95.8743 460.056 96.429 460.824L96.045 458.968C96.045 458.029 96.3437 457.325 96.941 456.856C97.5383 456.344 98.477 456.088 99.757 456.088C100.952 456.088 101.805 456.28 102.317 456.664C102.829 457.005 103.149 457.496 103.277 458.136C103.405 458.733 103.469 459.416 103.469 460.184V483.608C103.469 484.333 103.405 484.995 103.277 485.592C103.149 486.189 102.808 486.659 102.253 487C101.741 487.341 100.888 487.512 99.693 487.512ZM87.917 480.088C89.3677 480.088 90.669 479.725 91.821 479C92.973 478.275 93.8903 477.293 94.573 476.056C95.2983 474.776 95.661 473.368 95.661 471.832C95.661 470.168 95.2983 468.717 94.573 467.48C93.8477 466.243 92.8877 465.283 91.693 464.6C90.541 463.875 89.2397 463.512 87.789 463.512C86.2103 463.512 84.8023 463.896 83.565 464.664C82.3277 465.389 81.3463 466.392 80.621 467.672C79.9383 468.909 79.597 470.317 79.597 471.896C79.597 473.432 79.9597 474.819 80.685 476.056C81.4103 477.293 82.3917 478.275 83.629 479C84.909 479.725 86.3383 480.088 87.917 480.088ZM116.577 500.248C115.211 499.651 114.422 498.968 114.209 498.2C113.995 497.475 114.187 496.493 114.785 495.256L131.297 458.264C131.894 456.899 132.534 456.088 133.217 455.832C133.899 455.533 134.945 455.683 136.353 456.28C137.675 456.877 138.443 457.539 138.657 458.264C138.913 458.989 138.763 459.971 138.208 461.208L121.569 498.392C121.014 499.757 120.395 500.547 119.713 500.76C119.03 501.016 117.985 500.845 116.577 500.248ZM122.529 484.568L107.745 461.848C106.977 460.696 106.657 459.736 106.785 458.968C106.955 458.2 107.638 457.453 108.833 456.728C110.155 455.917 111.179 455.597 111.905 455.768C112.673 455.939 113.441 456.621 114.209 457.816L125.921 476.056L122.529 484.568ZM159.839 487.576C157.748 487.576 155.871 487.171 154.207 486.36C152.585 485.507 151.199 484.355 150.047 482.904C148.937 481.453 148.084 479.789 147.487 477.912C146.932 475.992 146.655 473.944 146.655 471.768C146.697 469.592 147.017 467.565 147.615 465.688C148.212 463.768 149.065 462.104 150.175 460.696C151.327 459.245 152.713 458.115 154.335 457.304C155.956 456.493 157.791 456.088 159.839 456.088C161.801 456.088 163.636 456.493 165.343 457.304C167.092 458.115 168.628 459.245 169.951 460.696C171.316 462.104 172.383 463.768 173.151 465.688C173.919 467.565 174.303 469.571 174.303 471.704C174.303 473.923 173.919 476.013 173.151 477.976C172.383 479.896 171.337 481.581 170.015 483.032C168.692 484.44 167.156 485.549 165.407 486.36C163.657 487.171 161.801 487.576 159.839 487.576ZM158.815 480.088C160.308 480.088 161.652 479.747 162.847 479.064C164.041 478.339 164.98 477.357 165.663 476.12C166.388 474.883 166.751 473.475 166.751 471.896C166.751 470.275 166.388 468.845 165.663 467.608C164.98 466.328 164.041 465.347 162.847 464.664C161.652 463.939 160.308 463.576 158.815 463.576C157.364 463.576 156.041 463.939 154.847 464.664C153.652 465.389 152.692 466.371 151.967 467.608C151.284 468.845 150.943 470.275 150.943 471.896C150.943 473.475 151.284 474.883 151.967 476.12C152.692 477.357 153.652 478.339 154.847 479.064C156.041 479.747 157.364 480.088 158.815 480.088ZM146.975 487.64C145.823 487.64 144.969 487.448 144.415 487.064C143.86 486.723 143.519 486.275 143.391 485.72C143.263 485.123 143.199 484.461 143.199 483.736V445.592C143.199 444.867 143.263 444.227 143.391 443.672C143.519 443.075 143.86 442.605 144.415 442.264C144.969 441.923 145.823 441.752 146.975 441.752C148.169 441.752 149.023 441.923 149.535 442.264C150.047 442.605 150.367 443.075 150.495 443.672C150.623 444.269 150.687 444.909 150.687 445.592V485.016C150.516 485.955 150.153 486.616 149.599 487C149.087 487.427 148.212 487.64 146.975 487.64ZM195.31 488.024C192.537 488.024 190.105 487.576 188.014 486.68C185.966 485.784 184.238 484.568 182.83 483.032C181.465 481.453 180.419 479.704 179.694 477.784C179.011 475.821 178.67 473.795 178.67 471.704C178.67 468.632 179.374 465.901 180.782 463.512C182.19 461.123 184.131 459.245 186.606 457.88C189.123 456.515 192.003 455.832 195.246 455.832C197.55 455.832 199.577 456.195 201.326 456.92C203.075 457.645 204.526 458.605 205.678 459.8C206.873 460.952 207.769 462.232 208.366 463.64C209.006 465.048 209.326 466.413 209.326 467.736C209.326 469.997 208.771 471.64 207.662 472.664C206.595 473.688 205.251 474.2 203.63 474.2H186.734C186.777 475.651 187.225 476.909 188.078 477.976C188.974 479.043 190.083 479.875 191.406 480.472C192.771 481.027 194.158 481.304 195.566 481.304C196.633 481.304 197.571 481.24 198.382 481.112C199.235 480.984 199.961 480.835 200.558 480.664C201.155 480.451 201.667 480.237 202.094 480.024C202.563 479.811 202.99 479.619 203.374 479.448C203.758 479.277 204.121 479.171 204.462 479.128C204.931 479.085 205.401 479.192 205.87 479.448C206.339 479.704 206.723 480.152 207.022 480.792C207.278 481.219 207.449 481.624 207.534 482.008C207.662 482.349 207.726 482.691 207.726 483.032C207.726 483.885 207.214 484.696 206.19 485.464C205.166 486.189 203.715 486.787 201.838 487.256C200.003 487.768 197.827 488.024 195.31 488.024ZM186.734 469.656H199.854C200.579 469.656 201.134 469.549 201.518 469.336C201.902 469.08 202.094 468.568 202.094 467.8C202.094 466.819 201.795 465.944 201.198 465.176C200.601 464.365 199.79 463.747 198.766 463.32C197.742 462.851 196.547 462.616 195.182 462.616C193.603 462.616 192.174 462.936 190.894 463.576C189.614 464.173 188.59 465.005 187.822 466.072C187.097 467.139 186.734 468.333 186.734 469.656ZM229.505 487.64C227.414 487.64 225.622 487.427 224.129 487C222.636 486.573 221.42 485.912 220.481 485.016C219.542 484.12 218.838 482.968 218.369 481.56C217.942 480.109 217.729 478.403 217.729 476.44V449.304C217.729 448.536 217.793 447.875 217.921 447.32C218.092 446.765 218.433 446.339 218.945 446.04C219.5 445.699 220.353 445.528 221.505 445.528C222.7 445.528 223.553 445.699 224.065 446.04C224.62 446.381 224.961 446.851 225.089 447.448C225.26 448.003 225.345 448.621 225.345 449.304V476.184C225.345 477.08 225.409 477.805 225.537 478.36C225.708 478.915 225.942 479.341 226.241 479.64C226.582 479.896 227.009 480.088 227.521 480.216C228.076 480.301 228.737 480.344 229.505 480.344C230.316 480.344 230.998 480.408 231.553 480.536C232.15 480.664 232.598 480.984 232.897 481.496C233.196 481.965 233.345 482.755 233.345 483.864C233.345 485.059 233.153 485.933 232.769 486.488C232.428 487 231.958 487.32 231.361 487.448C230.806 487.576 230.188 487.64 229.505 487.64ZM215.105 456.728L221.697 456.792L230.529 456.536C231.254 456.536 231.894 456.621 232.449 456.792C233.046 456.92 233.516 457.261 233.857 457.816C234.198 458.328 234.369 459.181 234.369 460.376C234.369 461.485 234.198 462.317 233.857 462.872C233.516 463.427 233.068 463.789 232.513 463.96C231.958 464.088 231.318 464.152 230.593 464.152L222.017 464.024L214.913 464.088C213.846 464.045 213.1 463.747 212.673 463.192C212.289 462.595 212.097 461.635 212.097 460.312C212.097 459.075 212.332 458.179 212.801 457.624C213.313 457.027 214.081 456.728 215.105 456.728ZM253.861 488.024C251.813 488.024 249.807 487.64 247.845 486.872C245.925 486.061 244.175 484.931 242.597 483.48C241.061 482.029 239.823 480.323 238.885 478.36C237.989 476.397 237.541 474.243 237.541 471.896C237.541 469.635 237.967 467.523 238.821 465.56C239.674 463.597 240.847 461.869 242.341 460.376C243.834 458.883 245.541 457.731 247.461 456.92C249.423 456.067 251.514 455.64 253.733 455.64C256.719 455.64 259.429 456.365 261.861 457.816C264.293 459.224 266.234 461.144 267.685 463.576C269.135 466.008 269.861 468.76 269.861 471.832C269.861 474.264 269.413 476.483 268.517 478.488C267.621 480.451 266.405 482.157 264.869 483.608C263.333 485.016 261.605 486.104 259.685 486.872C257.807 487.64 255.866 488.024 253.861 488.024ZM253.733 480.472C255.141 480.472 256.485 480.131 257.765 479.448C259.087 478.723 260.154 477.699 260.965 476.376C261.818 475.053 262.245 473.496 262.245 471.704C262.245 470.04 261.861 468.568 261.093 467.288C260.367 466.008 259.365 465.005 258.085 464.28C256.805 463.555 255.333 463.192 253.669 463.192C252.09 463.192 250.661 463.576 249.381 464.344C248.101 465.069 247.077 466.093 246.309 467.416C245.583 468.696 245.22 470.147 245.22 471.768C245.22 473.56 245.626 475.117 246.437 476.44C247.247 477.72 248.293 478.723 249.573 479.448C250.895 480.131 252.282 480.472 253.733 480.472ZM278.603 487.576C277.451 487.576 276.597 487.405 276.043 487.064C275.531 486.723 275.211 486.253 275.083 485.656C274.955 485.059 274.891 484.419 274.891 483.736V459.8C274.891 459.117 274.955 458.499 275.083 457.944C275.211 457.389 275.552 456.941 276.107 456.6C276.661 456.259 277.536 456.088 278.731 456.088C279.968 456.088 280.864 456.344 281.419 456.856C282.016 457.368 282.315 458.179 282.315 459.288L281.739 461.08C281.952 460.611 282.315 460.099 282.827 459.544C283.339 458.989 283.957 458.435 284.683 457.88C285.451 457.325 286.304 456.877 287.243 456.536C288.181 456.195 289.163 456.024 290.187 456.024C291.595 456.024 292.875 456.259 294.027 456.728C295.221 457.197 296.267 457.88 297.163 458.776C298.101 459.672 298.912 460.76 299.595 462.04C300.32 460.931 301.131 459.928 302.027 459.032C302.923 458.093 303.968 457.368 305.163 456.856C306.357 456.301 307.701 456.024 309.194 456.024C311.669 456.024 313.739 456.643 315.403 457.88C317.109 459.117 318.389 460.888 319.243 463.192C320.139 465.453 320.587 468.163 320.587 471.32V483.736C320.587 484.461 320.501 485.123 320.331 485.72C320.203 486.275 319.861 486.723 319.307 487.064C318.795 487.405 317.941 487.576 316.747 487.576C315.552 487.576 314.677 487.384 314.123 487C313.568 486.659 313.227 486.211 313.099 485.656C312.971 485.059 312.907 484.397 312.907 483.672V471.256C312.907 469.677 312.715 468.312 312.331 467.16C311.947 466.008 311.371 465.112 310.603 464.472C309.877 463.832 308.917 463.512 307.722 463.512C306.443 463.512 305.333 463.832 304.395 464.472C303.499 465.069 302.795 465.944 302.283 467.096C301.771 468.248 301.515 469.656 301.515 471.32V483.8C301.515 484.525 301.408 485.208 301.195 485.848C300.981 486.445 300.555 486.893 299.915 487.192C299.317 487.533 298.443 487.661 297.291 487.576C296.224 487.533 295.435 487.32 294.923 486.936C294.453 486.552 294.155 486.083 294.027 485.528C293.941 484.931 293.899 484.312 293.899 483.672V471.256C293.899 469.677 293.707 468.312 293.323 467.16C292.939 465.965 292.363 465.069 291.595 464.472C290.869 463.832 289.888 463.512 288.651 463.512C287.328 463.512 286.197 463.853 285.259 464.536C284.363 465.219 283.68 466.136 283.211 467.288C282.741 468.44 282.507 469.763 282.507 471.256V483.8C282.507 484.483 282.421 485.123 282.251 485.72C282.123 486.317 281.781 486.765 281.227 487.064C280.715 487.405 279.84 487.576 278.603 487.576ZM341.736 488.024C339.688 488.024 337.682 487.64 335.72 486.872C333.8 486.061 332.05 484.931 330.472 483.48C328.936 482.029 327.698 480.323 326.76 478.36C325.864 476.397 325.416 474.243 325.416 471.896C325.416 469.635 325.842 467.523 326.696 465.56C327.549 463.597 328.722 461.869 330.216 460.376C331.709 458.883 333.416 457.731 335.336 456.92C337.298 456.067 339.389 455.64 341.608 455.64C344.594 455.64 347.304 456.365 349.736 457.816C352.168 459.224 354.109 461.144 355.56 463.576C357.01 466.008 357.736 468.76 357.736 471.832C357.736 474.264 357.288 476.483 356.392 478.488C355.496 480.451 354.28 482.157 352.744 483.608C351.208 485.016 349.48 486.104 347.56 486.872C345.682 487.64 343.741 488.024 341.736 488.024ZM341.608 480.472C343.016 480.472 344.36 480.131 345.64 479.448C346.962 478.723 348.029 477.699 348.84 476.376C349.693 475.053 350.12 473.496 350.12 471.704C350.12 470.04 349.736 468.568 348.968 467.288C348.242 466.008 347.24 465.005 345.96 464.28C344.68 463.555 343.208 463.192 341.544 463.192C339.965 463.192 338.536 463.576 337.256 464.344C335.976 465.069 334.952 466.093 334.184 467.416C333.458 468.696 333.095 470.147 333.095 471.768C333.095 473.56 333.501 475.117 334.312 476.44C335.122 477.72 336.168 478.723 337.448 479.448C338.77 480.131 340.157 480.472 341.608 480.472ZM366.542 487.64C365.39 487.64 364.536 487.448 363.982 487.064C363.47 486.723 363.15 486.253 363.022 485.656C362.894 485.059 362.83 484.397 362.83 483.672V459.928C362.83 459.16 362.894 458.499 363.022 457.944C363.15 457.347 363.47 456.899 363.982 456.6C364.536 456.259 365.411 456.088 366.606 456.088C367.758 456.088 368.59 456.237 369.102 456.536C369.656 456.835 369.998 457.219 370.126 457.688C370.296 458.115 370.382 458.541 370.382 458.968L369.87 460.12C370.083 459.779 370.382 459.373 370.766 458.904C371.15 458.392 371.662 457.901 372.302 457.432C372.942 456.92 373.71 456.515 374.606 456.216C375.502 455.875 376.568 455.704 377.806 455.704C378.318 455.704 378.851 455.768 379.406 455.896C380.003 455.981 380.579 456.131 381.134 456.344C381.731 456.515 382.264 456.749 382.734 457.048C383.203 457.347 383.566 457.709 383.822 458.136C384.078 458.52 384.206 458.968 384.206 459.48C384.206 460.845 383.864 461.997 383.182 462.936C382.499 463.875 381.688 464.344 380.75 464.344C380.11 464.344 379.64 464.28 379.342 464.152C379.043 464.024 378.787 463.875 378.574 463.704C378.403 463.533 378.126 463.384 377.742 463.256C377.4 463.128 376.846 463.064 376.078 463.064C375.438 463.064 374.776 463.171 374.094 463.384C373.454 463.597 372.856 463.917 372.302 464.344C371.747 464.771 371.299 465.325 370.958 466.008C370.616 466.648 370.446 467.395 370.446 468.248V483.8C370.446 484.525 370.382 485.187 370.254 485.784C370.126 486.339 369.784 486.787 369.23 487.128C368.675 487.469 367.779 487.64 366.542 487.64ZM393.104 487.64C391.952 487.64 391.099 487.448 390.544 487.064C390.032 486.723 389.712 486.253 389.584 485.656C389.456 485.059 389.392 484.397 389.392 483.672V459.928C389.392 459.16 389.456 458.499 389.584 457.944C389.712 457.347 390.032 456.899 390.544 456.6C391.099 456.259 391.973 456.088 393.168 456.088C394.32 456.088 395.152 456.237 395.664 456.536C396.219 456.835 396.56 457.219 396.688 457.688C396.859 458.115 396.944 458.541 396.944 458.968L396.432 460.12C396.645 459.779 396.944 459.373 397.328 458.904C397.712 458.392 398.224 457.901 398.864 457.432C399.504 456.92 400.272 456.515 401.168 456.216C402.064 455.875 403.131 455.704 404.368 455.704C404.88 455.704 405.413 455.768 405.968 455.896C406.565 455.981 407.141 456.131 407.696 456.344C408.293 456.515 408.827 456.749 409.296 457.048C409.765 457.347 410.128 457.709 410.384 458.136C410.64 458.52 410.768 458.968 410.768 459.48C410.768 460.845 410.427 461.997 409.744 462.936C409.061 463.875 408.251 464.344 407.312 464.344C406.672 464.344 406.203 464.28 405.904 464.152C405.605 464.024 405.349 463.875 405.136 463.704C404.965 463.533 404.688 463.384 404.304 463.256C403.963 463.128 403.408 463.064 402.64 463.064C402 463.064 401.339 463.171 400.656 463.384C400.016 463.597 399.419 463.917 398.864 464.344C398.309 464.771 397.861 465.325 397.52 466.008C397.179 466.648 397.008 467.395 397.008 468.248V483.8C397.008 484.525 396.944 485.187 396.816 485.784C396.688 486.339 396.347 486.787 395.792 487.128C395.237 487.469 394.341 487.64 393.104 487.64ZM429.361 488.024C427.313 488.024 425.307 487.64 423.345 486.872C421.425 486.061 419.675 484.931 418.097 483.48C416.561 482.029 415.323 480.323 414.385 478.36C413.489 476.397 413.041 474.243 413.041 471.896C413.041 469.635 413.467 467.523 414.321 465.56C415.174 463.597 416.347 461.869 417.841 460.376C419.334 458.883 421.041 457.731 422.961 456.92C424.923 456.067 427.014 455.64 429.233 455.64C432.219 455.64 434.929 456.365 437.361 457.816C439.793 459.224 441.734 461.144 443.185 463.576C444.635 466.008 445.361 468.76 445.361 471.832C445.361 474.264 444.913 476.483 444.017 478.488C443.121 480.451 441.905 482.157 440.369 483.608C438.833 485.016 437.105 486.104 435.185 486.872C433.307 487.64 431.366 488.024 429.361 488.024ZM429.233 480.472C430.641 480.472 431.985 480.131 433.265 479.448C434.587 478.723 435.654 477.699 436.465 476.376C437.318 475.053 437.745 473.496 437.745 471.704C437.745 470.04 437.361 468.568 436.593 467.288C435.867 466.008 434.865 465.005 433.585 464.28C432.305 463.555 430.833 463.192 429.169 463.192C427.59 463.192 426.161 463.576 424.881 464.344C423.601 465.069 422.577 466.093 421.809 467.416C421.083 468.696 420.72 470.147 420.72 471.768C420.72 473.56 421.126 475.117 421.937 476.44C422.747 477.72 423.793 478.723 425.073 479.448C426.395 480.131 427.782 480.472 429.233 480.472ZM460.661 487.576C459.807 487.576 459.125 487.405 458.613 487.064C458.143 486.765 457.781 486.381 457.525 485.912C457.311 485.443 457.119 485.016 456.949 484.632L447.541 460.824C447.285 460.013 447.157 459.331 447.157 458.776C447.199 458.221 447.413 457.752 447.797 457.368C448.223 456.941 448.842 456.579 449.653 456.28C451.018 455.725 452.085 455.576 452.853 455.832C453.663 456.088 454.261 456.813 454.645 458.008L460.725 474.136L466.229 458.712C466.357 458.328 466.549 457.923 466.805 457.496C467.061 457.069 467.423 456.707 467.893 456.408C468.405 456.067 469.087 455.896 469.941 455.896C470.837 455.896 471.541 456.067 472.053 456.408C472.565 456.707 472.949 457.069 473.205 457.496C473.503 457.923 473.695 458.328 473.781 458.712L479.285 474.264L485.109 458.584C485.621 457.261 486.261 456.387 487.029 455.96C487.797 455.533 488.842 455.576 490.165 456.088C491.359 456.6 492.17 457.24 492.597 458.008C493.023 458.733 492.981 459.693 492.469 460.888L482.997 484.632C482.826 485.059 482.613 485.507 482.357 485.976C482.143 486.403 481.781 486.765 481.269 487.064C480.799 487.405 480.159 487.576 479.349 487.576C478.495 487.576 477.813 487.427 477.301 487.128C476.831 486.872 476.469 486.509 476.213 486.04C475.957 485.571 475.743 485.08 475.573 484.568L470.005 468.76L464.437 484.568C464.181 485.165 463.946 485.699 463.733 486.168C463.519 486.637 463.178 486.979 462.708 487.192C462.239 487.448 461.557 487.576 460.661 487.576Z" fill="#3A055E"/>
<mask id="path-2-inside-1_23_77" fill="white">
<rect x="85" y="68" width="240" height="240" rx="16"/>
</mask>
<rect x="85" y="68" width="240" height="240" rx="16" stroke="#3A055E" stroke-width="48" mask="url(#path-2-inside-1_23_77)"/>
<mask id="path-3-inside-2_23_77" fill="white">
<rect x="189" y="172" width="240" height="240" rx="16"/>
</mask>
<rect x="189" y="172" width="240" height="240" rx="16" stroke="#C878FF" stroke-width="48" mask="url(#path-3-inside-2_23_77)"/>
<rect x="301" y="172" width="24" height="24" fill="#3A055E"/>
<path d="M213 196H301L249 248L213 284V196Z" fill="#C878FF"/>
<path d="M301 284H213L265 232L301 196V284Z" fill="#3A055E"/>
</svg>
